#VRML V2.0 utf8
# 3D model generated by easyeda2kicad.py (https://github.com/uPesy/easyeda2kicad.py)

Shape{
    appearance Appearance {
        material  Material 	{
            diffuseColor 0.5882352941176471 0.5725490196078431 0.5254901960784314
            specularColor 0.043137254901960784 0.0392156862745098 0.0392156862745098
            ambientIntensity 0.2
            transparency 0
            shininess 0.5
        }
    }
    geometry IndexedFaceSet {
        ccw TRUE
        solid FALSE
        coord DEF co Coordinate {
            point [
                -0.3073 0.3976 -0.2094, -0.3337 0.3976 -0.2094, -0.0408 0.3976 -0.2082, 1.6043 0.3976 0.0, 1.6732 0.3976 0.0, 1.6732 0.3976 -0.2082, 0.1827 0.3976 -0.2082, -0.0408 0.3976 0.5118, 1.6043 0.3976 0.5118, 0.1688 0.3976 -0.207, 0.1514 0.3976 -0.2082, -1.6732 0.3976 -0.2082, -1.6732 0.3976 0.0, -1.6043 0.3976 0.0, 0.084 0.3976 -0.2094, 0.1452 0.3976 -0.2086, 0.1224 0.3976 -0.2148, 0.1224 0.3976 -0.2412, 0.084 0.3976 -0.4063, 0.1685 0.3976 -0.2286, 0.126 0.3976 -0.3764, 0.1446 0.3976 -0.2317, 0.1224 0.3976 -0.3745, 1.6732 0.3976 -1.0039, 1.3199 0.3976 -1.0039, 0.3601 0.3976 -0.2094, 0.3601 0.3976 -0.3847, 0.2857 0.3976 -0.3847, 0.2467 0.3976 -0.2425, 0.2295 0.3976 -0.226, 0.2111 0.3976 -0.2153, 0.2359 0.3976 -0.3893, 0.2199 0.3976 -0.3996, 0.2008 0.3976 -0.4062, 0.2503 0.3976 -0.3742, 0.2608 0.3976 -0.3556, 0.2669 0.3976 -0.3345, 0.1895 0.3976 -0.2088, 0.3865 0.3976 -0.2094, 0.2689 0.3976 -0.3116, 0.266 0.3976 -0.2836, 0.2585 0.3976 -0.2612, -0.0168 0.3976 -0.231, -0.0216 0.3976 -0.3847, 0.1879 0.3976 -0.2308, 0.2026 0.3976 -0.2361, 0.2165 0.3976 -0.2454, 0.2283 0.3976 -0.2586, 0.2364 0.3976 -0.2739, 0.2416 0.3976 -0.2952, 0.2425 0.3976 -0.3099, 0.2405 0.3976 -0.3312, 0.2351 0.3976 -0.3482, 0.173 0.3976 -0.3871, 0.2178 0.3976 -0.3715, 0.1912 0.3976 -0.385, 0.2057 0.3976 -0.3797, 0.2269 0.3976 -0.3618, 0.1468 0.3976 -0.3842, -0.0168 0.3976 -0.2094, -0.0408 0.3976 -1.0039, -0.0216 0.3976 -0.4063, 0.0576 0.3976 -0.3174, 0.0576 0.3976 -0.3847, -0.012 0.3976 -0.3174, -0.012 0.3976 -0.2958, 0.0576 0.3976 -0.2958, 0.0576 0.3976 -0.231, 0.3865 0.3976 -0.4063, 0.8455 0.3976 -1.0039, 0.7293 0.3976 -1.0039, 1.2392 0.3976 -1.0039, 1.123 0.3976 -1.0039, 1.0423 0.3976 -1.0039, 0.9262 0.3976 -1.0039, 0.1224 0.3976 -0.3961, 0.1434 0.3976 -0.4047, 0.1712 0.3976 -0.4086, 0.2857 0.3976 -0.4063, 0.1766 0.3976 -0.4087, 0.5325 0.3976 -1.0039, 0.4518 0.3976 -1.0039, 0.3356 0.3976 -1.0039, 0.2549 0.3976 -1.0039, 0.1388 0.3976 -1.0039, 0.0581 0.3976 -1.0039, -1.6043 0.3976 0.5118, -1.6732 0.3976 -1.0039, -1.5945 0.3976 -1.0039, -0.3618 0.3976 -0.3511, -0.2805 0.3976 -0.3511, -0.3817 0.3976 -0.4063, -0.2617 0.3976 -0.4063, -0.1671 0.3976 -0.2205, -0.1865 0.3976 -0.2332, -0.1135 0.3976 -0.4063, -0.2329 0.3976 -0.4063, -0.1385 0.3976 -0.404, -0.1611 0.3976 -0.3971, -0.2087 0.3976 -0.3522, -0.1976 0.3976 -0.3696, -0.1815 0.3976 -0.3851, -0.7293 0.3976 -1.0039, -0.8455 0.3976 -1.0039, -0.4105 0.3976 -0.4063, -1.0423 0.3976 -1.0039, -1.123 0.3976 -1.0039, -0.06 0.3976 -0.4063, -0.0581 0.3976 -1.0039, -0.2549 0.3976 -1.0039, -0.06 0.3976 -0.2094, -0.1156 0.3976 -0.2094, -0.144 0.3976 -0.2125, -1.2392 0.3976 -1.0039, -1.3199 0.3976 -1.0039, -1.436 0.3976 -1.0039, -0.3356 0.3976 -1.0039, -0.4518 0.3976 -1.0039, -0.5325 0.3976 -1.0039, -0.1942 0.3976 -0.2403, -0.206 0.3976 -0.2557, -0.2143 0.3976 -0.2748, -0.6486 0.3976 -1.0039, -0.2181 0.3976 -0.2956, -0.2185 0.3976 -0.3054, -0.2157 0.3976 -0.3317, -1.752 0.3189 -1.122, -1.5494 0.3189 -1.122, -1.752 -0.3189 -1.122, -1.5494 -0.3189 -1.122, -1.5494 -0.3189 -1.122
            ]
        }
        coordIndex [
            0,1,2,-1,3,4,5,-1,6,7,8,-1,6,9,7,-1,7,9,10,-1,7,10,2,-1,11,12,13,-1,14,10,15,-1,15,16,14,-1,14,16,17,-1,14,17,18,-1,19,20,21,-1,21,20,22,-1,21,22,17,-1,5,23,24,-1,25,26,27,-1,28,29,25,-1,25,29,30,-1,31,27,32,-1,32,27,33,-1,31,34,27,-1,27,34,35,-1,27,35,36,-1,30,37,25,-1,25,37,6,-1,25,6,38,-1,36,39,27,-1,27,39,40,-1,27,40,25,-1,25,40,41,-1,25,41,28,-1,42,43,2,-1,19,44,20,-1,20,44,45,-1,20,45,46,-1,46,47,20,-1,20,47,48,-1,20,48,49,-1,49,50,20,-1,20,50,51,-1,20,51,52,-1,53,54,55,-1,55,54,56,-1,52,57,20,-1,20,57,54,-1,20,54,58,-1,58,54,53,-1,10,14,2,-1,2,14,59,-1,2,59,42,-1,60,61,18,-1,62,63,64,-1,64,63,43,-1,64,43,65,-1,65,43,42,-1,65,42,66,-1,66,42,67,-1,68,69,70,-1,24,71,5,-1,5,71,72,-1,5,72,73,-1,8,3,6,-1,6,3,5,-1,6,5,38,-1,38,5,73,-1,38,73,68,-1,68,73,74,-1,68,74,69,-1,17,22,18,-1,18,22,75,-1,18,75,60,-1,60,75,76,-1,60,76,77,-1,27,78,33,-1,33,78,60,-1,33,60,79,-1,79,60,77,-1,70,80,68,-1,68,80,81,-1,68,81,78,-1,78,81,82,-1,78,82,83,-1,83,84,78,-1,78,84,85,-1,78,85,60,-1,86,7,13,-1,13,7,2,-1,13,2,11,-1,11,2,1,-1,11,1,87,-1,87,1,88,-1,89,90,91,-1,91,90,92,-1,0,93,94,-1,95,96,97,-1,97,96,98,-1,99,100,96,-1,96,100,101,-1,96,101,98,-1,102,103,104,-1,104,103,105,-1,104,105,106,-1,43,61,2,-1,2,61,60,-1,2,60,107,-1,107,60,108,-1,107,108,95,-1,95,108,109,-1,95,109,96,-1,96,109,92,-1,107,110,2,-1,2,110,111,-1,2,111,0,-1,0,111,112,-1,0,112,93,-1,106,113,104,-1,104,113,114,-1,104,114,1,-1,1,114,115,-1,1,115,88,-1,109,116,92,-1,92,116,117,-1,92,117,118,-1,94,119,0,-1,0,119,120,-1,0,120,121,-1,104,91,102,-1,102,91,92,-1,102,92,122,-1,122,92,118,-1,121,123,0,-1,0,123,124,-1,0,124,96,-1,96,124,125,-1,96,125,99,-1,126,127,128,-1,128,127,129,-1,
        ]
    }
}
Shape{
    appearance Appearance {
        material  Material 	{
            diffuseColor 0.6666666666666666 0.6666666666666666 0.6666666666666666
            specularColor 0.4666666666666667 0.4666666666666667 0.4666666666666667
            ambientIntensity 0.2
            transparency 0
            shininess 0.5
        }
    }
    geometry IndexedFaceSet {
        ccw TRUE
        solid FALSE
        coord DEF co Coordinate {
            point [
                -1.8898 -0.3189 -1.2008, -1.752 -0.3189 -1.2008, -1.8898 -0.3189 -1.0433, -1.752 -0.3189 -1.122, -1.8871 -0.3189 -1.0229, -1.6732 -0.3189 -1.0039, -1.5945 -0.3189 -1.0039, -1.5494 -0.3189 -1.122, -1.5177 -0.3189 -1.0039, -1.8314 -0.3189 -0.9673, -1.8504 -0.3189 -0.9751, -1.6732 -0.3189 0.0, -1.752 -0.3189 0.0, -1.752 -0.3189 -0.9646, -1.811 -0.3189 -0.9646, -1.8667 -0.3189 -0.9876, -1.8792 -0.3189 -1.0039, -1.8792 -0.3189 -1.0039
            ]
        }
        coordIndex [
            0,1,2,-1,2,1,3,-1,2,3,4,-1,5,3,6,-1,6,3,7,-1,6,7,8,-1,9,10,3,-1,11,12,5,-1,5,12,13,-1,5,13,3,-1,3,13,14,-1,3,14,9,-1,10,15,3,-1,3,15,16,-1,3,16,4,-1,
        ]
    }
}
Shape{
    appearance Appearance {
        material  Material 	{
            diffuseColor 0.20784313725490197 0.20784313725490197 0.20784313725490197
            specularColor 0.01568627450980392 0.01568627450980392 0.01568627450980392
            ambientIntensity 0.2
            transparency 0
            shininess 0.5
        }
    }
    geometry IndexedFaceSet {
        ccw TRUE
        solid FALSE
        coord DEF co Coordinate {
            point [
                -1.6732 -0.3189 0.0, -1.6732 -0.3937 0.0, -1.752 -0.3189 0.0, -1.752 -0.3937 0.0, -1.6831 0.3937 0.0, -1.6831 0.3189 0.0, -1.752 0.3937 0.0, -1.752 0.3189 0.0, -1.752 0.3189 0.0
            ]
        }
        coordIndex [
            0,1,2,-1,2,1,3,-1,4,5,6,-1,6,5,7,-1,
        ]
    }
}
Shape{
    appearance Appearance {
        material  Material 	{
            diffuseColor 0.5882352941176471 0.5725490196078431 0.5254901960784314
            specularColor 0.043137254901960784 0.0392156862745098 0.0392156862745098
            ambientIntensity 0.2
            transparency 0
            shininess 0.5
        }
    }
    geometry IndexedFaceSet {
        ccw TRUE
        solid FALSE
        coord DEF co Coordinate {
            point [
                1.8898 0.3189 -1.2008, 1.752 0.3189 -1.2008, 1.8898 0.3189 -1.0433, 1.752 0.3189 -1.122, 1.8871 0.3189 -1.0229, 1.5494 0.3189 -1.122, 1.5177 0.3189 -1.0039, 1.6732 0.3189 -1.0039, 1.6831 0.3189 0.0, 1.752 0.3189 0.0, 1.752 0.3189 -0.9646, 1.8314 0.3189 -0.9673, 1.8504 0.3189 -0.9751, 1.6732 0.3189 0.0, 1.811 0.3189 -0.9646, 1.8667 0.3189 -0.9876, 1.8792 0.3189 -1.0039, 1.8792 0.3189 -1.0039
            ]
        }
        coordIndex [
            0,1,2,-1,2,1,3,-1,2,3,4,-1,5,6,3,-1,3,6,7,-1,8,9,10,-1,11,12,3,-1,13,8,7,-1,7,8,10,-1,7,10,3,-1,3,10,14,-1,3,14,11,-1,12,15,3,-1,3,15,16,-1,3,16,4,-1,
        ]
    }
}
Shape{
    appearance Appearance {
        material  Material 	{
            diffuseColor 0.20784313725490197 0.20784313725490197 0.20784313725490197
            specularColor 0.01568627450980392 0.01568627450980392 0.01568627450980392
            ambientIntensity 0.2
            transparency 0
            shininess 0.5
        }
    }
    geometry IndexedFaceSet {
        ccw TRUE
        solid FALSE
        coord DEF co Coordinate {
            point [
                2.6772 0.3937 0.0, 2.4186 0.3393 0.0, 2.4107 0.3583 0.0, 2.3982 0.3746 0.0, 2.3819 0.3871 0.0, 2.3671 0.3937 0.0, 2.3671 -0.3937 0.0, 2.3819 -0.3871 0.0, 2.6772 -0.3937 0.0, 2.3982 -0.3746 0.0, 2.4107 -0.3583 0.0, 2.4186 -0.3393 0.0, 2.4213 -0.3189 0.0, 2.4213 0.3189 0.0, 1.752 0.3189 0.0, 1.6831 0.3189 0.0, 1.752 0.3937 0.0, 1.6831 0.3937 0.0, 1.752 -0.3937 0.0, 1.6732 -0.3937 0.0, 1.752 -0.3189 0.0, 1.6732 -0.3189 0.0, 1.6732 -0.3189 0.0
            ]
        }
        coordIndex [
            0,1,2,-1,2,3,0,-1,0,3,4,-1,0,4,5,-1,6,7,8,-1,8,7,9,-1,8,9,10,-1,10,11,8,-1,8,11,12,-1,8,12,0,-1,0,12,13,-1,0,13,1,-1,14,15,16,-1,16,15,17,-1,18,19,20,-1,20,19,21,-1,
        ]
    }
}
Shape{
    appearance Appearance {
        material  Material 	{
            diffuseColor 0.5882352941176471 0.5725490196078431 0.5254901960784314
            specularColor 0.043137254901960784 0.0392156862745098 0.0392156862745098
            ambientIntensity 0.2
            transparency 0
            shininess 0.5
        }
    }
    geometry IndexedFaceSet {
        ccw TRUE
        solid FALSE
        coord DEF co Coordinate {
            point [
                -1.1557 -0.3189 -1.122, -1.124 -0.3189 -1.0039, -1.2065 -0.3189 -1.122, -1.2382 -0.3189 -1.0039, -0.9588 -0.3189 -1.122, -0.9272 -0.3189 -1.0039, -1.0097 -0.3189 -1.122, -1.0413 -0.3189 -1.0039, -0.762 -0.3189 -1.122, -0.7303 -0.3189 -1.0039, -0.8128 -0.3189 -1.122, -0.8445 -0.3189 -1.0039, -0.5651 -0.3189 -1.122, -0.5335 -0.3189 -1.0039, -0.616 -0.3189 -1.122, -0.6476 -0.3189 -1.0039, -0.3683 -0.3189 -1.122, -0.3366 -0.3189 -1.0039, -0.4191 -0.3189 -1.122, -0.4508 -0.3189 -1.0039, -0.1714 -0.3189 -1.122, -0.1398 -0.3189 -1.0039, -0.2223 -0.3189 -1.122, -0.2539 -0.3189 -1.0039, 0.0254 -0.3189 -1.122, 0.0571 -0.3189 -1.0039, -0.0254 -0.3189 -1.122, -0.0571 -0.3189 -1.0039, 0.2223 -0.3189 -1.122, 0.2539 -0.3189 -1.0039, 0.1714 -0.3189 -1.122, 0.1398 -0.3189 -1.0039, 0.4191 -0.3189 -1.122, 0.4508 -0.3189 -1.0039, 0.3683 -0.3189 -1.122, 0.3366 -0.3189 -1.0039, 0.616 -0.3189 -1.122, 0.6476 -0.3189 -1.0039, 0.5651 -0.3189 -1.122, 0.5335 -0.3189 -1.0039, 0.8128 -0.3189 -1.122, 0.8445 -0.3189 -1.0039, 0.762 -0.3189 -1.122, 0.7303 -0.3189 -1.0039, 1.0097 -0.3189 -1.122, 1.0413 -0.3189 -1.0039, 0.9588 -0.3189 -1.122, 0.9272 -0.3189 -1.0039, 1.2065 -0.3189 -1.122, 1.2382 -0.3189 -1.0039, 1.1557 -0.3189 -1.122, 1.124 -0.3189 -1.0039, 1.4034 -0.3189 -1.122, 1.435 -0.3189 -1.0039, 1.3525 -0.3189 -1.122, 1.3209 -0.3189 -1.0039, 1.5177 -0.3189 -1.0039, 1.5494 -0.3189 -1.122, 1.6732 -0.3189 -1.0039, 1.752 -0.3189 -1.122, 1.752 -0.3189 -1.2008, 1.8898 -0.3189 -1.2008, 1.8898 -0.3189 -1.0433, 1.752 -0.3189 0.0, 1.6732 -0.3189 0.0, 1.752 -0.3189 -0.9646, 1.811 -0.3189 -0.9646, 1.8871 -0.3189 -1.0229, 1.8792 -0.3189 -1.0039, 1.8667 -0.3189 -0.9876, 1.8504 -0.3189 -0.9751, 1.8314 -0.3189 -0.9673, -1.124 0.3189 -1.0039, -1.1557 0.3189 -1.122, -1.2382 0.3189 -1.0039, -1.2065 0.3189 -1.122, -0.9272 0.3189 -1.0039, -0.9588 0.3189 -1.122, -1.0413 0.3189 -1.0039, -1.0097 0.3189 -1.122, -0.7303 0.3189 -1.0039, -0.762 0.3189 -1.122, -0.8445 0.3189 -1.0039, -0.8128 0.3189 -1.122, -0.5335 0.3189 -1.0039, -0.5651 0.3189 -1.122, -0.6476 0.3189 -1.0039, -0.616 0.3189 -1.122, -0.3366 0.3189 -1.0039, -0.3683 0.3189 -1.122, -0.4508 0.3189 -1.0039, -0.4191 0.3189 -1.122, -0.1398 0.3189 -1.0039, -0.1714 0.3189 -1.122, -0.2539 0.3189 -1.0039, -0.2223 0.3189 -1.122, 0.0571 0.3189 -1.0039, 0.0254 0.3189 -1.122, -0.0571 0.3189 -1.0039, -0.0254 0.3189 -1.122, 0.2539 0.3189 -1.0039, 0.2223 0.3189 -1.122, 0.1398 0.3189 -1.0039, 0.1714 0.3189 -1.122, 0.4508 0.3189 -1.0039, 0.4191 0.3189 -1.122, 0.3366 0.3189 -1.0039, 0.3683 0.3189 -1.122, 0.6476 0.3189 -1.0039, 0.616 0.3189 -1.122, 0.5335 0.3189 -1.0039, 0.5651 0.3189 -1.122, 0.8445 0.3189 -1.0039, 0.8128 0.3189 -1.122, 0.7303 0.3189 -1.0039, 0.762 0.3189 -1.122, 1.0413 0.3189 -1.0039, 1.0097 0.3189 -1.122, 0.9272 0.3189 -1.0039, 0.9588 0.3189 -1.122, 1.2382 0.3189 -1.0039, 1.2065 0.3189 -1.122, 1.124 0.3189 -1.0039, 1.1557 0.3189 -1.122, 1.435 0.3189 -1.0039, 1.4034 0.3189 -1.122, 1.3209 0.3189 -1.0039, 1.3525 0.3189 -1.122, 1.5494 0.3189 -1.122, 1.752 0.3189 -1.122, -1.435 -0.3189 -1.0039, -1.4034 -0.3189 -1.122, -1.3209 -0.3189 -1.0039, -1.3525 -0.3189 -1.122, -1.4034 0.3189 -1.122, -1.435 0.3189 -1.0039, -1.3525 0.3189 -1.122, -1.3209 0.3189 -1.0039, -1.6732 -0.3976 -1.0039, -1.5945 -0.3976 -1.0039, -1.6732 -0.3976 0.0, -1.436 -0.3976 -1.0039, -1.3199 -0.3976 -1.0039, -1.2392 -0.3976 -1.0039, -1.123 -0.3976 -1.0039, -1.0423 -0.3976 -1.0039, -0.8455 -0.3976 -1.0039, -0.7293 -0.3976 -1.0039, -0.6486 -0.3976 -1.0039, -0.5325 -0.3976 -1.0039, -0.4518 -0.3976 -1.0039, -0.3356 -0.3976 -1.0039, -0.2549 -0.3976 -1.0039, -0.0581 -0.3976 -1.0039, 1.6732 -0.3976 0.0, 0.0581 -0.3976 -1.0039, 0.1388 -0.3976 -1.0039, 0.2549 -0.3976 -1.0039, 0.3356 -0.3976 -1.0039, 0.4518 -0.3976 -1.0039, 0.5325 -0.3976 -1.0039, 0.7293 -0.3976 -1.0039, 0.8455 -0.3976 -1.0039, 0.9262 -0.3976 -1.0039, 1.0423 -0.3976 -1.0039, 1.123 -0.3976 -1.0039, 1.2392 -0.3976 -1.0039, 1.3199 -0.3976 -1.0039, 1.6732 -0.3976 -1.0039, -1.6732 -0.3957 -1.0039, -1.6732 -0.3937 0.0, -1.6732 -0.3189 -1.0039, -1.6732 -0.3189 0.0, 1.6732 -0.3937 0.0, 1.6732 -0.3957 -1.0039, -1.6732 0.3976 -1.0039, -1.6732 0.3189 -1.0039, -1.6732 0.3976 -0.2082, -1.6732 0.3189 0.0, -1.6732 0.3976 0.0, 1.6732 0.3189 -1.0039, 1.6732 0.3976 -1.0039, 1.6732 0.3189 0.0, 1.6732 0.3976 -0.2082, 1.6732 0.3976 0.0, 1.6732 0.3976 0.0
            ]
        }
        coordIndex [
            0,1,2,-1,2,1,3,-1,4,5,6,-1,6,5,7,-1,8,9,10,-1,10,9,11,-1,12,13,14,-1,14,13,15,-1,16,17,18,-1,18,17,19,-1,20,21,22,-1,22,21,23,-1,24,25,26,-1,26,25,27,-1,28,29,30,-1,30,29,31,-1,32,33,34,-1,34,33,35,-1,36,37,38,-1,38,37,39,-1,40,41,42,-1,42,41,43,-1,44,45,46,-1,46,45,47,-1,48,49,50,-1,50,49,51,-1,52,53,54,-1,54,53,55,-1,56,57,58,-1,58,57,59,-1,60,61,59,-1,59,61,62,-1,63,64,65,-1,65,64,58,-1,65,58,66,-1,66,58,59,-1,62,67,59,-1,59,67,68,-1,59,68,69,-1,69,70,59,-1,59,70,71,-1,59,71,66,-1,72,73,74,-1,74,73,75,-1,76,77,78,-1,78,77,79,-1,80,81,82,-1,82,81,83,-1,84,85,86,-1,86,85,87,-1,88,89,90,-1,90,89,91,-1,92,93,94,-1,94,93,95,-1,96,97,98,-1,98,97,99,-1,100,101,102,-1,102,101,103,-1,104,105,106,-1,106,105,107,-1,108,109,110,-1,110,109,111,-1,112,113,114,-1,114,113,115,-1,116,117,118,-1,118,117,119,-1,120,121,122,-1,122,121,123,-1,124,125,126,-1,126,125,127,-1,73,0,75,-1,75,0,2,-1,77,4,79,-1,79,4,6,-1,81,8,83,-1,83,8,10,-1,85,12,87,-1,87,12,14,-1,89,16,91,-1,91,16,18,-1,93,20,95,-1,95,20,22,-1,97,24,99,-1,99,24,26,-1,101,28,103,-1,103,28,30,-1,105,32,107,-1,107,32,34,-1,109,36,111,-1,111,36,38,-1,113,40,115,-1,115,40,42,-1,117,44,119,-1,119,44,46,-1,121,48,123,-1,123,48,50,-1,125,52,127,-1,127,52,54,-1,57,128,59,-1,59,128,129,-1,130,131,132,-1,132,131,133,-1,134,135,136,-1,136,135,137,-1,131,134,133,-1,133,134,136,-1,138,139,140,-1,140,139,141,-1,140,141,142,-1,142,143,140,-1,140,143,144,-1,140,144,145,-1,145,146,140,-1,140,146,147,-1,140,147,148,-1,148,149,140,-1,140,149,150,-1,140,150,151,-1,151,152,140,-1,140,152,153,-1,140,153,154,-1,154,153,155,-1,154,155,156,-1,156,157,154,-1,154,157,158,-1,154,158,159,-1,159,160,154,-1,154,160,161,-1,154,161,162,-1,162,163,154,-1,154,163,164,-1,154,164,165,-1,165,166,154,-1,154,166,167,-1,154,167,168,-1,138,140,169,-1,169,140,170,-1,169,170,171,-1,171,170,172,-1,154,168,173,-1,173,168,174,-1,173,174,64,-1,64,174,58,-1,175,176,177,-1,177,176,178,-1,177,178,179,-1,180,181,182,-1,182,181,183,-1,182,183,184,-1,
        ]
    }
}
Shape{
    appearance Appearance {
        material  Material 	{
            diffuseColor 0.6666666666666666 0.6666666666666666 0.6666666666666666
            specularColor 0.4666666666666667 0.4666666666666667 0.4666666666666667
            ambientIntensity 0.2
            transparency 0
            shininess 0.5
        }
    }
    geometry IndexedFaceSet {
        ccw TRUE
        solid FALSE
        coord DEF co Coordinate {
            point [
                -1.6831 0.3189 0.0, -1.6732 0.3189 0.0, -1.6732 0.3189 -1.0039, -1.752 0.3189 -1.2008, -1.8898 0.3189 -1.2008, -1.752 0.3189 -1.122, -1.8898 0.3189 -1.0433, -1.5494 0.3189 -1.122, -1.5945 0.3189 -1.0039, -1.5177 0.3189 -1.0039, -1.752 0.3189 0.0, -1.752 0.3189 -0.9646, -1.811 0.3189 -0.9646, -1.8871 0.3189 -1.0229, -1.8792 0.3189 -1.0039, -1.8667 0.3189 -0.9876, -1.8504 0.3189 -0.9751, -1.8314 0.3189 -0.9673, -1.8314 0.3189 -0.9673
            ]
        }
        coordIndex [
            0,1,2,-1,3,4,5,-1,5,4,6,-1,5,2,7,-1,7,2,8,-1,7,8,9,-1,10,0,11,-1,11,0,2,-1,11,2,12,-1,12,2,5,-1,6,13,5,-1,5,13,14,-1,5,14,15,-1,15,16,5,-1,5,16,17,-1,5,17,12,-1,
        ]
    }
}
Shape{
    appearance Appearance {
        material  Material 	{
            diffuseColor 0.5882352941176471 0.5725490196078431 0.5254901960784314
            specularColor 0.043137254901960784 0.0392156862745098 0.0392156862745098
            ambientIntensity 0.2
            transparency 0
            shininess 0.5
        }
    }
    geometry IndexedFaceSet {
        ccw TRUE
        solid FALSE
        coord DEF co Coordinate {
            point [
                -1.6043 0.3976 0.0, -1.6732 0.3976 0.0, -1.6043 0.122 0.0, -1.6732 0.3189 0.0, 1.6732 0.3976 0.0, 1.6043 0.3976 0.0, 1.6732 0.3189 0.0, 1.6043 0.122 0.0, -1.6831 0.3189 0.0, -1.6831 -0.0787 0.0, 1.6831 -0.0787 0.0, 1.6831 0.3189 0.0, 1.6732 -0.3937 0.0, -1.6732 -0.3937 0.0, 1.6732 -0.3976 0.0, -1.6732 -0.3976 0.0, -1.6732 -0.3976 0.0
            ]
        }
        coordIndex [
            0,1,2,-1,2,1,3,-1,4,5,6,-1,6,5,7,-1,3,8,2,-1,2,8,9,-1,2,9,7,-1,7,9,10,-1,7,10,6,-1,6,10,11,-1,12,13,14,-1,14,13,15,-1,
        ]
    }
}
Shape{
    appearance Appearance {
        material  Material 	{
            diffuseColor 0.20784313725490197 0.20784313725490197 0.20784313725490197
            specularColor 0.01568627450980392 0.01568627450980392 0.01568627450980392
            ambientIntensity 0.2
            transparency 0
            shininess 0.5
        }
    }
    geometry IndexedFaceSet {
        ccw TRUE
        solid FALSE
        coord DEF co Coordinate {
            point [
                -2.4186 -0.3393 0.0, -2.4107 -0.3583 0.0, -2.6772 -0.3937 0.0, -2.3671 0.3937 0.0, -2.3819 0.3871 0.0, -2.6772 0.3937 0.0, -2.3982 0.3746 0.0, -2.4107 0.3583 0.0, -2.3982 -0.3746 0.0, -2.3819 -0.3871 0.0, -2.3671 -0.3937 0.0, -2.4186 0.3393 0.0, -2.4213 0.3189 0.0, -2.4213 -0.3189 0.0, -1.6831 0.3937 0.4331, -1.6831 0.3937 0.0, -1.7618 0.3937 0.5118, -1.752 0.3937 0.0, -2.5591 0.3937 0.5118, -2.5896 0.3937 0.5078, -2.6772 0.3937 0.3937, -2.6731 0.3937 0.4243, -2.6613 0.3937 0.4528, -2.6426 0.3937 0.4772, -2.6181 0.3937 0.496, 2.6772 -0.3937 0.3937, 2.6772 -0.3937 0.0, 2.6772 0.3937 0.3937, 2.6772 0.3937 0.0, 2.3671 0.3937 0.0, 1.6831 0.3937 0.0, 1.6831 0.3937 0.4331, 1.752 0.3937 0.0, 1.7618 0.3937 0.5118, 2.5591 0.3937 0.5118, 2.5896 0.3937 0.5078, 2.6181 0.3937 0.496, 2.6426 0.3937 0.4772, 2.6613 0.3937 0.4528, 2.6731 0.3937 0.4243, -2.6772 -0.3937 0.3937, -2.6731 -0.3937 0.4243, -2.5591 -0.3937 0.5118, -1.752 -0.3937 0.0, -1.6732 -0.3937 0.0, 2.5591 -0.3937 0.5118, -2.5896 -0.3937 0.5078, -2.6181 -0.3937 0.496, 1.6732 -0.3937 0.0, 1.752 -0.3937 0.0, 2.3671 -0.3937 0.0, -2.6426 -0.3937 0.4772, -2.6613 -0.3937 0.4528, 2.6731 -0.3937 0.4243, 2.6613 -0.3937 0.4528, 2.6426 -0.3937 0.4772, 2.6181 -0.3937 0.496, 2.5896 -0.3937 0.5078, -1.7618 -0.0787 0.5118, 1.7618 -0.0787 0.5118, -1.6831 0.3189 0.0, -1.6831 -0.0787 0.4331, -1.6831 -0.0787 0.0, 1.6831 -0.0787 0.0, 1.6831 -0.0787 0.4331, 1.6831 0.3189 0.0, 1.6831 0.3189 0.0
            ]
        }
        coordIndex [
            0,1,2,-1,3,4,5,-1,5,4,6,-1,5,6,7,-1,1,8,2,-1,2,8,9,-1,2,9,10,-1,7,11,5,-1,5,11,12,-1,5,12,2,-1,2,12,13,-1,2,13,0,-1,14,15,16,-1,16,15,17,-1,16,17,18,-1,18,17,3,-1,18,3,19,-1,5,20,3,-1,3,20,21,-1,3,21,22,-1,22,23,3,-1,3,23,24,-1,3,24,19,-1,25,26,27,-1,27,26,28,-1,27,28,29,-1,30,31,32,-1,32,31,33,-1,32,33,29,-1,29,33,34,-1,34,35,29,-1,29,35,36,-1,29,36,37,-1,37,38,29,-1,29,38,39,-1,29,39,27,-1,20,5,40,-1,40,5,2,-1,40,2,10,-1,40,10,41,-1,42,43,44,-1,42,44,45,-1,43,42,10,-1,10,42,46,-1,10,46,47,-1,44,48,45,-1,45,48,49,-1,45,49,50,-1,47,51,10,-1,10,51,52,-1,10,52,41,-1,50,26,25,-1,25,53,50,-1,50,53,54,-1,50,54,55,-1,55,56,50,-1,50,56,57,-1,50,57,45,-1,16,18,58,-1,58,18,42,-1,58,42,59,-1,59,42,45,-1,59,45,33,-1,33,45,34,-1,15,14,60,-1,60,14,61,-1,60,61,62,-1,63,64,65,-1,65,64,31,-1,65,31,30,-1,58,59,64,-1,63,62,64,-1,64,62,61,-1,64,61,58,-1,33,31,59,-1,59,31,64,-1,58,61,16,-1,16,61,14,-1,25,27,39,-1,25,39,53,-1,53,39,38,-1,53,38,54,-1,54,38,37,-1,54,37,55,-1,55,37,36,-1,55,36,56,-1,56,36,35,-1,56,35,57,-1,57,35,34,-1,57,34,45,-1,20,40,41,-1,20,41,21,-1,21,41,52,-1,21,52,22,-1,22,52,51,-1,22,51,23,-1,23,51,47,-1,23,47,24,-1,24,47,46,-1,24,46,19,-1,19,46,42,-1,19,42,18,-1,
        ]
    }
}
Shape{
    appearance Appearance {
        material  Material 	{
            diffuseColor 0.5882352941176471 0.5725490196078431 0.5254901960784314
            specularColor 0.043137254901960784 0.0392156862745098 0.0392156862745098
            ambientIntensity 0.2
            transparency 0
            shininess 0.5
        }
    }
    geometry IndexedFaceSet {
        ccw TRUE
        solid FALSE
        coord DEF co Coordinate {
            point [
                1.6043 0.3976 0.5118, 1.6043 0.2402 0.5118, 1.6043 0.3976 0.0, 1.6043 0.122 0.3072, 1.6043 0.122 0.0, -1.6043 0.122 0.3072, -1.6043 0.122 0.0, -1.6043 0.2402 0.5118, -1.6043 0.3976 0.5118, -1.6043 0.3976 0.0, -0.0408 0.3976 0.5118, -0.6486 -0.3957 -1.0039, -0.7293 -0.3957 -1.0039, -0.7293 -0.31 -1.0039, 0.1388 -0.3957 -1.0039, 0.0581 -0.3957 -1.0039, 0.0581 -0.31 -1.0039, 0.9262 -0.3957 -1.0039, 0.8455 -0.3957 -1.0039, 0.8455 -0.31 -1.0039, -1.436 -0.3957 -1.0039, -1.436 -0.31 -1.0039, -1.435 -0.3189 -1.0039, -1.435 -0.31 -1.0039, -1.3199 -0.3957 -1.0039, -1.3209 -0.3189 -1.0039, -1.3199 -0.31 -1.0039, -1.3209 -0.31 -1.0039, -1.3209 0.3189 -1.0039, -1.435 0.3189 -1.0039, -1.436 0.3976 -1.0039, -1.3199 0.3976 -1.0039, -1.6732 0.3189 -1.0039, -1.6732 0.3976 -1.0039, -1.5945 0.3189 -1.0039, -1.5945 0.3976 -1.0039, -1.5177 0.3189 -1.0039, -1.5157 -0.301 -1.0039, -1.437 -0.301 -1.0039, -1.437 0.3937 -1.0039, -1.5157 0.3937 -1.0039, -1.6732 -0.3957 -1.0039, -1.6732 -0.3189 -1.0039, -1.5945 -0.3957 -1.0039, -1.5945 -0.3189 -1.0039, -1.5177 -0.3189 -1.0039, -1.5177 -0.31 -1.0039, 1.5177 -0.3189 -1.0039, 1.6732 -0.3189 -1.0039, 1.6732 -0.3957 -1.0039, 1.3199 -0.3957 -1.0039, 1.3209 -0.3189 -1.0039, 1.435 -0.3189 -1.0039, 1.5157 0.301 -1.0039, 1.5177 -0.31 -1.0039, 1.5157 -0.31 -1.0039, 1.5157 -0.3937 -1.0039, 1.3209 -0.31 -1.0039, 1.3199 -0.31 -1.0039, 1.3209 0.3189 -1.0039, 1.3199 0.3976 -1.0039, 1.435 0.3189 -1.0039, 1.6732 0.3976 -1.0039, 1.5177 0.3189 -1.0039, 1.6732 0.3189 -1.0039, 1.437 -0.3937 -1.0039, 1.437 -0.31 -1.0039, 1.435 -0.31 -1.0039, 1.437 0.301 -1.0039, 1.2382 -0.3189 -1.0039, 1.2382 -0.31 -1.0039, 1.2392 -0.31 -1.0039, 1.2382 0.3189 -1.0039, 1.124 -0.3189 -1.0039, 1.123 -0.3957 -1.0039, 1.123 -0.31 -1.0039, 1.2392 -0.3957 -1.0039, 1.0413 0.3189 -1.0039, 1.0423 0.3976 -1.0039, 1.0423 -0.31 -1.0039, 0.9262 0.3976 -1.0039, 0.9272 0.3189 -1.0039, 0.9262 -0.31 -1.0039, 0.9272 -0.31 -1.0039, 0.9272 -0.3189 -1.0039, 0.8445 -0.31 -1.0039, 0.8445 0.3189 -1.0039, 0.7293 -0.31 -1.0039, 0.7283 -0.31 -1.0039, 0.7283 0.301 -1.0039, 0.5335 -0.31 -1.0039, 0.5325 -0.31 -1.0039, 0.5335 0.3189 -1.0039, 0.5325 0.3976 -1.0039, 0.6476 0.3189 -1.0039, 0.7293 0.3976 -1.0039, 0.6496 -0.3937 -1.0039, 0.7283 -0.3937 -1.0039, 0.7293 -0.3957 -1.0039, 0.8445 -0.3189 -1.0039, 0.7303 -0.3189 -1.0039, 0.5325 -0.3957 -1.0039, 0.5335 -0.3189 -1.0039, 0.6476 -0.3189 -1.0039, 0.6496 -0.31 -1.0039, 0.6476 -0.31 -1.0039, 0.6496 0.301 -1.0039, 0.4508 -0.3189 -1.0039, 0.4508 -0.31 -1.0039, 0.4518 -0.31 -1.0039, 0.4508 0.3189 -1.0039, 0.3366 -0.3189 -1.0039, 0.3356 -0.3957 -1.0039, 0.3356 -0.31 -1.0039, 0.4518 -0.3957 -1.0039, 0.2539 0.3189 -1.0039, 0.2549 0.3976 -1.0039, 0.2549 -0.31 -1.0039, 0.1388 0.3976 -1.0039, 0.1398 0.3189 -1.0039, 0.1388 -0.31 -1.0039, 0.1398 -0.31 -1.0039, 0.1398 -0.3189 -1.0039, 0.0571 -0.31 -1.0039, 0.0571 0.3189 -1.0039, -0.0571 0.3189 -1.0039, -0.0571 -0.31 -1.0039, -0.0581 -0.31 -1.0039, -0.0571 -0.3189 -1.0039, -0.2539 -0.31 -1.0039, -0.2549 -0.31 -1.0039, -0.2539 0.3189 -1.0039, -0.2549 0.3976 -1.0039, -0.1398 0.3189 -1.0039, -0.0581 0.3976 -1.0039, -0.1378 -0.3937 -1.0039, -0.0591 -0.3937 -1.0039, -0.0581 -0.3957 -1.0039, 0.0571 -0.3189 -1.0039, -0.0591 -0.31 -1.0039, -0.2549 -0.3957 -1.0039, -0.2539 -0.3189 -1.0039, -0.1398 -0.3189 -1.0039, -0.0591 0.301 -1.0039, -0.1378 0.301 -1.0039, -0.1398 -0.31 -1.0039, -0.1378 -0.31 -1.0039, -0.3366 -0.3189 -1.0039, -0.3366 -0.31 -1.0039, -0.3356 -0.31 -1.0039, -0.3366 0.3189 -1.0039, -0.4508 -0.3189 -1.0039, -0.4518 -0.3957 -1.0039, -0.4518 -0.31 -1.0039, -0.3356 -0.3957 -1.0039, -0.5335 0.3189 -1.0039, -0.5325 0.3976 -1.0039, -0.5325 -0.31 -1.0039, -0.6486 0.3976 -1.0039, -0.6476 0.3189 -1.0039, -0.6486 -0.31 -1.0039, -0.6476 -0.31 -1.0039, -0.6476 -0.3189 -1.0039, -0.7303 -0.31 -1.0039, -0.7303 0.3189 -1.0039, -0.8455 -0.31 -1.0039, -0.8465 -0.31 -1.0039, -0.8465 0.301 -1.0039, -1.0413 -0.31 -1.0039, -1.0423 -0.31 -1.0039, -1.0413 0.3189 -1.0039, -1.0423 0.3976 -1.0039, -0.9272 0.3189 -1.0039, -0.8455 0.3976 -1.0039, -0.9252 -0.3937 -1.0039, -0.8465 -0.3937 -1.0039, -0.8455 -0.3957 -1.0039, -0.7303 -0.3189 -1.0039, -0.8445 -0.3189 -1.0039, -1.0423 -0.3957 -1.0039, -1.0413 -0.3189 -1.0039, -0.9272 -0.3189 -1.0039, -0.9252 -0.31 -1.0039, -0.9272 -0.31 -1.0039, -0.9252 0.301 -1.0039, -1.124 -0.3189 -1.0039, -1.124 -0.31 -1.0039, -1.123 -0.31 -1.0039, -1.124 0.3189 -1.0039, -1.2382 -0.3189 -1.0039, -1.2392 -0.3957 -1.0039, -1.2392 -0.31 -1.0039, -1.123 -0.3957 -1.0039, 1.122 -0.31 -1.0039, 1.122 0.301 -1.0039, 1.122 -0.3937 -1.0039, 1.0433 -0.3937 -1.0039, 1.0423 -0.3957 -1.0039, 1.0433 -0.31 -1.0039, 1.0433 0.301 -1.0039, 1.123 0.3976 -1.0039, 0.3346 -0.31 -1.0039, 0.3346 0.301 -1.0039, 0.3346 -0.3937 -1.0039, 0.2559 -0.3937 -1.0039, 0.2549 -0.3957 -1.0039, 0.2559 -0.31 -1.0039, 0.2559 0.301 -1.0039, 0.3356 0.3976 -1.0039, -0.4528 -0.31 -1.0039, -0.4528 0.301 -1.0039, -0.4528 -0.3937 -1.0039, -0.5315 -0.3937 -1.0039, -0.5325 -0.3957 -1.0039, -0.5315 -0.31 -1.0039, -0.5315 0.301 -1.0039, -0.4518 0.3976 -1.0039, -1.2402 -0.31 -1.0039, -1.2402 0.301 -1.0039, -1.2402 -0.3937 -1.0039, -1.3189 -0.3937 -1.0039, -1.3189 -0.31 -1.0039, -1.3189 0.301 -1.0039, -1.2392 0.3976 -1.0039, -1.6732 -0.3976 -1.0039, -1.5945 -0.3976 -1.0039, -1.436 -0.3976 -1.0039, -1.3199 -0.3976 -1.0039, -1.2392 -0.3976 -1.0039, -1.123 -0.3976 -1.0039, -1.0423 -0.3976 -1.0039, -0.8455 -0.3976 -1.0039, -0.7293 -0.3976 -1.0039, -0.6486 -0.3976 -1.0039, -0.5325 -0.3976 -1.0039, -0.4518 -0.3976 -1.0039, -0.3356 -0.3976 -1.0039, -0.2549 -0.3976 -1.0039, -0.0581 -0.3976 -1.0039, 0.0581 -0.3976 -1.0039, 0.1388 -0.3976 -1.0039, 0.2549 -0.3976 -1.0039, 0.3356 -0.3976 -1.0039, 0.4518 -0.3976 -1.0039, 0.5325 -0.3976 -1.0039, 0.7293 -0.3976 -1.0039, 0.8455 -0.3976 -1.0039, 0.9262 -0.3976 -1.0039, 1.0423 -0.3976 -1.0039, 1.123 -0.3976 -1.0039, 1.2392 -0.3976 -1.0039, 1.3199 -0.3976 -1.0039, 1.6732 -0.3976 -1.0039, 1.0413 -0.3189 -1.0039, 1.0413 -0.31 -1.0039, 0.2539 -0.3189 -1.0039, 0.2539 -0.31 -1.0039, -0.5335 -0.3189 -1.0039, -0.5335 -0.31 -1.0039, 1.2392 0.3976 -1.0039, 1.2402 0.3937 -1.0039, 1.2402 -0.301 -1.0039, 1.3189 0.3937 -1.0039, 1.3189 -0.301 -1.0039, 1.124 0.3189 -1.0039, 1.124 -0.31 -1.0039, 0.8455 0.3976 -1.0039, 0.8465 0.3937 -1.0039, 0.8465 -0.301 -1.0039, 0.9252 0.3937 -1.0039, 0.9252 -0.301 -1.0039, 0.7303 0.3189 -1.0039, 0.7303 -0.31 -1.0039, 0.4518 0.3976 -1.0039, 0.4528 0.3937 -1.0039, 0.4528 -0.301 -1.0039, 0.5315 0.3937 -1.0039, 0.5315 -0.301 -1.0039, 0.3366 0.3189 -1.0039, 0.3366 -0.31 -1.0039, -0.0408 0.3976 -1.0039, 0.0581 0.3976 -1.0039, 0.0591 -0.301 -1.0039, 0.1378 -0.301 -1.0039, 0.1378 0.3937 -1.0039, 0.0591 0.3937 -1.0039, -0.3356 0.3976 -1.0039, -0.3346 0.3937 -1.0039, -0.3346 -0.301 -1.0039, -0.2559 0.3937 -1.0039, -0.2559 -0.301 -1.0039, -0.4508 0.3189 -1.0039, -0.4508 -0.31 -1.0039, -0.7293 0.3976 -1.0039, -0.7283 0.3937 -1.0039, -0.7283 -0.301 -1.0039, -0.6496 0.3937 -1.0039, -0.6496 -0.301 -1.0039, -0.8445 0.3189 -1.0039, -0.8445 -0.31 -1.0039, -1.123 0.3976 -1.0039, -1.122 0.3937 -1.0039, -1.122 -0.301 -1.0039, -1.0433 0.3937 -1.0039, -1.0433 -0.301 -1.0039, -1.2382 0.3189 -1.0039, -1.2382 -0.31 -1.0039, -1.4034 0.3189 -1.122, -1.4034 -0.3189 -1.122, -1.5494 -0.3189 -1.122, -1.5494 0.3189 -1.122, 1.5494 0.3189 -1.122, 1.5494 -0.3189 -1.122, 1.4034 -0.3189 -1.122, 1.4034 0.3189 -1.122, 1.3525 0.3189 -1.122, 1.3525 -0.3189 -1.122, 1.2065 -0.3189 -1.122, 1.2065 0.3189 -1.122, 1.1557 0.3189 -1.122, 1.1557 -0.3189 -1.122, 1.0097 -0.3189 -1.122, 1.0097 0.3189 -1.122, 0.9588 0.3189 -1.122, 0.9588 -0.3189 -1.122, 0.8128 -0.3189 -1.122, 0.8128 0.3189 -1.122, 0.762 0.3189 -1.122, 0.762 -0.3189 -1.122, 0.616 -0.3189 -1.122, 0.616 0.3189 -1.122, 0.5651 0.3189 -1.122, 0.5651 -0.3189 -1.122, 0.4191 -0.3189 -1.122, 0.4191 0.3189 -1.122, 0.3683 0.3189 -1.122, 0.3683 -0.3189 -1.122, 0.2223 -0.3189 -1.122, 0.2223 0.3189 -1.122, 0.1714 0.3189 -1.122, 0.1714 -0.3189 -1.122, 0.0254 -0.3189 -1.122, 0.0254 0.3189 -1.122, -0.0254 0.3189 -1.122, -0.0254 -0.3189 -1.122, -0.1714 -0.3189 -1.122, -0.1714 0.3189 -1.122, -0.2223 0.3189 -1.122, -0.2223 -0.3189 -1.122, -0.3683 -0.3189 -1.122, -0.3683 0.3189 -1.122, -0.4191 0.3189 -1.122, -0.4191 -0.3189 -1.122, -0.5651 -0.3189 -1.122, -0.5651 0.3189 -1.122, -0.616 0.3189 -1.122, -0.616 -0.3189 -1.122, -0.762 -0.3189 -1.122, -0.762 0.3189 -1.122, -0.8128 0.3189 -1.122, -0.8128 -0.3189 -1.122, -0.9588 -0.3189 -1.122, -0.9588 0.3189 -1.122, -1.0097 0.3189 -1.122, -1.0097 -0.3189 -1.122, -1.1557 -0.3189 -1.122, -1.1557 0.3189 -1.122, -1.2065 0.3189 -1.122, -1.2065 -0.3189 -1.122, -1.3525 -0.3189 -1.122, -1.3525 0.3189 -1.122, -1.3525 0.3189 -1.122
            ]
        }
        coordIndex [
            0,1,2,-1,2,1,3,-1,2,3,4,-1,5,6,3,-1,3,6,4,-1,7,8,5,-1,5,8,9,-1,5,9,6,-1,8,7,10,-1,10,7,1,-1,10,1,0,-1,7,5,1,-1,1,5,3,-1,11,12,13,-1,14,15,16,-1,17,18,19,-1,20,21,22,-1,22,21,23,-1,20,22,24,-1,24,22,25,-1,24,25,26,-1,26,25,27,-1,26,27,28,-1,23,21,29,-1,29,21,30,-1,29,30,28,-1,28,30,31,-1,28,31,26,-1,32,33,34,-1,34,33,35,-1,34,35,36,-1,37,38,21,-1,21,38,30,-1,30,38,39,-1,30,39,40,-1,41,42,43,-1,43,42,44,-1,43,44,20,-1,20,44,45,-1,20,45,21,-1,21,45,46,-1,21,46,37,-1,37,46,36,-1,37,36,40,-1,40,36,35,-1,40,35,30,-1,47,48,49,-1,50,51,52,-1,53,54,55,-1,55,54,47,-1,55,47,56,-1,57,58,59,-1,59,58,60,-1,59,60,61,-1,61,60,62,-1,61,62,63,-1,63,62,64,-1,47,49,56,-1,56,49,50,-1,56,50,65,-1,65,50,52,-1,65,52,66,-1,66,52,67,-1,66,67,68,-1,68,67,61,-1,68,61,53,-1,53,61,63,-1,53,63,54,-1,69,70,71,-1,71,70,72,-1,73,74,75,-1,74,73,76,-1,77,78,79,-1,78,77,80,-1,80,77,81,-1,80,81,82,-1,82,81,83,-1,82,83,84,-1,19,85,86,-1,87,88,89,-1,90,91,92,-1,92,91,93,-1,92,93,94,-1,94,93,95,-1,96,97,98,-1,85,19,99,-1,99,19,18,-1,99,18,100,-1,100,18,98,-1,100,98,87,-1,87,98,97,-1,87,97,88,-1,101,102,103,-1,98,101,96,-1,96,101,103,-1,96,103,104,-1,104,103,105,-1,104,105,106,-1,106,105,94,-1,106,94,89,-1,89,94,95,-1,89,95,87,-1,107,108,109,-1,109,108,110,-1,111,112,113,-1,112,111,114,-1,115,116,117,-1,116,115,118,-1,118,115,119,-1,118,119,120,-1,120,119,121,-1,120,121,122,-1,16,123,124,-1,125,126,127,-1,127,126,128,-1,129,130,131,-1,131,130,132,-1,131,132,133,-1,133,132,134,-1,135,136,137,-1,123,16,138,-1,138,16,15,-1,138,15,128,-1,128,15,137,-1,128,137,127,-1,127,137,136,-1,127,136,139,-1,140,141,142,-1,134,143,133,-1,133,143,144,-1,133,144,145,-1,145,144,146,-1,145,146,142,-1,142,146,135,-1,142,135,140,-1,140,135,137,-1,147,148,149,-1,149,148,150,-1,151,152,153,-1,152,151,154,-1,155,156,157,-1,156,155,158,-1,158,155,159,-1,158,159,160,-1,160,159,161,-1,160,161,162,-1,13,163,164,-1,165,166,167,-1,168,169,170,-1,170,169,171,-1,170,171,172,-1,172,171,173,-1,174,175,176,-1,163,13,177,-1,177,13,12,-1,177,12,178,-1,178,12,176,-1,178,176,165,-1,165,176,175,-1,165,175,166,-1,179,180,181,-1,176,179,174,-1,174,179,181,-1,174,181,182,-1,182,181,183,-1,182,183,184,-1,184,183,172,-1,184,172,167,-1,167,172,173,-1,167,173,165,-1,185,186,187,-1,187,186,188,-1,189,190,191,-1,190,189,192,-1,75,193,194,-1,193,75,195,-1,195,75,74,-1,195,74,196,-1,196,74,197,-1,196,197,198,-1,198,197,79,-1,198,79,199,-1,199,79,78,-1,199,78,194,-1,194,78,200,-1,194,200,75,-1,113,201,202,-1,201,113,203,-1,203,113,112,-1,203,112,204,-1,204,112,205,-1,204,205,206,-1,206,205,117,-1,206,117,207,-1,207,117,116,-1,207,116,202,-1,202,116,208,-1,202,208,113,-1,153,209,210,-1,209,153,211,-1,211,153,152,-1,211,152,212,-1,212,152,213,-1,212,213,214,-1,214,213,157,-1,214,157,215,-1,215,157,156,-1,215,156,210,-1,210,156,216,-1,210,216,153,-1,191,217,218,-1,217,191,219,-1,219,191,190,-1,219,190,220,-1,220,190,24,-1,220,24,221,-1,221,24,26,-1,221,26,222,-1,222,26,31,-1,222,31,218,-1,218,31,223,-1,218,223,191,-1,224,41,225,-1,225,41,43,-1,225,43,226,-1,226,43,20,-1,226,20,227,-1,227,20,24,-1,227,24,228,-1,228,24,190,-1,228,190,229,-1,229,190,192,-1,229,192,230,-1,230,192,179,-1,230,179,231,-1,231,179,176,-1,231,176,232,-1,232,176,12,-1,232,12,233,-1,233,12,11,-1,233,11,234,-1,234,11,213,-1,234,213,235,-1,235,213,152,-1,235,152,236,-1,236,152,154,-1,236,154,237,-1,237,154,140,-1,237,140,238,-1,238,140,137,-1,238,137,239,-1,239,137,15,-1,239,15,240,-1,240,15,14,-1,240,14,241,-1,241,14,205,-1,241,205,242,-1,242,205,112,-1,242,112,243,-1,243,112,114,-1,243,114,244,-1,244,114,101,-1,244,101,245,-1,245,101,98,-1,245,98,246,-1,246,98,18,-1,246,18,247,-1,247,18,17,-1,247,17,248,-1,248,17,197,-1,248,197,249,-1,249,197,74,-1,249,74,250,-1,250,74,76,-1,250,76,251,-1,251,76,50,-1,251,50,252,-1,252,50,49,-1,73,69,76,-1,76,69,71,-1,76,71,50,-1,50,71,58,-1,50,58,51,-1,51,58,57,-1,19,82,17,-1,17,82,84,-1,17,84,197,-1,197,84,253,-1,197,253,79,-1,79,253,254,-1,79,254,77,-1,111,107,114,-1,114,107,109,-1,114,109,101,-1,101,109,91,-1,101,91,102,-1,102,91,90,-1,16,120,14,-1,14,120,122,-1,14,122,205,-1,205,122,255,-1,205,255,117,-1,117,255,256,-1,117,256,115,-1,151,147,154,-1,154,147,149,-1,154,149,140,-1,140,149,130,-1,140,130,141,-1,141,130,129,-1,13,160,11,-1,11,160,162,-1,11,162,213,-1,213,162,257,-1,213,257,157,-1,157,257,258,-1,157,258,155,-1,189,185,192,-1,192,185,187,-1,192,187,179,-1,179,187,169,-1,179,169,180,-1,180,169,168,-1,259,260,261,-1,260,259,262,-1,262,259,60,-1,262,60,263,-1,263,60,58,-1,263,58,261,-1,261,58,71,-1,261,71,259,-1,259,71,72,-1,259,72,200,-1,200,72,264,-1,200,264,75,-1,75,264,265,-1,75,265,73,-1,266,267,268,-1,267,266,269,-1,269,266,80,-1,269,80,270,-1,270,80,82,-1,270,82,268,-1,268,82,19,-1,268,19,266,-1,266,19,86,-1,266,86,95,-1,95,86,271,-1,95,271,87,-1,87,271,272,-1,87,272,100,-1,273,274,275,-1,274,273,276,-1,276,273,93,-1,276,93,277,-1,277,93,91,-1,277,91,275,-1,275,91,109,-1,275,109,273,-1,273,109,110,-1,273,110,208,-1,208,110,278,-1,208,278,113,-1,113,278,279,-1,113,279,111,-1,139,143,127,-1,127,143,134,-1,127,134,125,-1,125,134,280,-1,125,280,124,-1,124,280,281,-1,124,281,16,-1,16,281,282,-1,16,282,120,-1,120,282,283,-1,120,283,118,-1,118,283,284,-1,118,284,281,-1,281,284,285,-1,281,285,282,-1,286,287,288,-1,287,286,289,-1,289,286,132,-1,289,132,290,-1,290,132,130,-1,290,130,288,-1,288,130,149,-1,288,149,286,-1,286,149,150,-1,286,150,216,-1,216,150,291,-1,216,291,153,-1,153,291,292,-1,153,292,151,-1,293,294,295,-1,294,293,296,-1,296,293,158,-1,296,158,297,-1,297,158,160,-1,297,160,295,-1,295,160,13,-1,295,13,293,-1,293,13,164,-1,293,164,173,-1,173,164,298,-1,173,298,165,-1,165,298,299,-1,165,299,178,-1,300,301,302,-1,301,300,303,-1,303,300,171,-1,303,171,304,-1,304,171,169,-1,304,169,302,-1,302,169,187,-1,302,187,300,-1,300,187,188,-1,300,188,223,-1,223,188,305,-1,223,305,191,-1,191,305,306,-1,191,306,189,-1,29,307,23,-1,23,307,308,-1,23,308,22,-1,45,309,46,-1,46,309,310,-1,46,310,36,-1,63,311,54,-1,54,311,312,-1,54,312,47,-1,52,313,67,-1,67,313,314,-1,67,314,61,-1,59,315,57,-1,57,315,316,-1,57,316,51,-1,69,317,70,-1,70,317,318,-1,70,318,72,-1,264,319,265,-1,265,319,320,-1,265,320,73,-1,253,321,254,-1,254,321,322,-1,254,322,77,-1,81,323,83,-1,83,323,324,-1,83,324,84,-1,99,325,85,-1,85,325,326,-1,85,326,86,-1,271,327,272,-1,272,327,328,-1,272,328,100,-1,103,329,105,-1,105,329,330,-1,105,330,94,-1,92,331,90,-1,90,331,332,-1,90,332,102,-1,107,333,108,-1,108,333,334,-1,108,334,110,-1,278,335,279,-1,279,335,336,-1,279,336,111,-1,255,337,256,-1,256,337,338,-1,256,338,115,-1,119,339,121,-1,121,339,340,-1,121,340,122,-1,138,341,123,-1,123,341,342,-1,123,342,124,-1,125,343,126,-1,126,343,344,-1,126,344,128,-1,142,345,145,-1,145,345,346,-1,145,346,133,-1,131,347,129,-1,129,347,348,-1,129,348,141,-1,147,349,148,-1,148,349,350,-1,148,350,150,-1,291,351,292,-1,292,351,352,-1,292,352,151,-1,257,353,258,-1,258,353,354,-1,258,354,155,-1,159,355,161,-1,161,355,356,-1,161,356,162,-1,177,357,163,-1,163,357,358,-1,163,358,164,-1,298,359,299,-1,299,359,360,-1,299,360,178,-1,181,361,183,-1,183,361,362,-1,183,362,172,-1,170,363,168,-1,168,363,364,-1,168,364,180,-1,185,365,186,-1,186,365,366,-1,186,366,188,-1,305,367,306,-1,306,367,368,-1,306,368,189,-1,25,369,27,-1,27,369,370,-1,27,370,28,-1,
        ]
    }
}
Shape{
    appearance Appearance {
        material  Material 	{
            diffuseColor 0.6666666666666666 0.6666666666666666 0.6666666666666666
            specularColor 0.4666666666666667 0.4666666666666667 0.4666666666666667
            ambientIntensity 0.2
            transparency 0
            shininess 0.5
        }
    }
    geometry IndexedFaceSet {
        ccw TRUE
        solid FALSE
        coord DEF co Coordinate {
            point [
                1.752 0.3976 0.0, 1.752 0.3937 0.0, 2.3425 0.3976 0.0, 2.3671 0.3937 0.0, 2.3629 0.395 0.0, 2.3629 -0.395 0.0, 2.3671 -0.3937 0.0, 2.3425 -0.3976 0.0, 1.752 -0.3937 0.0, 1.752 -0.3976 0.0, 1.752 -0.3976 -0.9646, 1.752 -0.3189 -0.9646, 1.752 -0.3189 0.0, 1.752 -0.3189 -1.122, 1.752 0.3189 -1.122, 1.752 -0.3189 -1.2008, 1.752 0.3189 -1.2008, 1.8898 -0.3976 -1.0433, 1.8898 -0.3976 -1.122, 2.3425 -0.3976 -1.122, 1.8314 -0.3976 -0.9673, 1.8504 -0.3976 -0.9751, 1.8667 -0.3976 -0.9876, 1.8792 -0.3976 -1.0039, 1.8871 -0.3976 -1.0229, 1.811 -0.3976 -0.9646, 1.8898 -0.3189 -1.2008, 1.8898 0.3189 -1.2008, 2.3425 -0.3189 -1.2008, 2.3425 0.3189 -1.2008, 1.752 0.3976 -0.9646, 1.752 0.3189 -0.9646, 1.752 0.3189 0.0, 1.8898 0.3976 -1.122, 1.8898 0.3976 -1.0433, 2.3425 0.3976 -1.122, 1.8871 0.3976 -1.0229, 1.8792 0.3976 -1.0039, 1.8667 0.3976 -0.9876, 1.8504 0.3976 -0.9751, 1.8314 0.3976 -0.9673, 1.811 0.3976 -0.9646, 2.4213 -0.3189 -1.122, 2.4213 0.3189 -1.122, 2.4213 -0.3189 0.0, 2.4213 0.3189 0.0, 1.8898 0.3189 -1.0433, 1.8898 0.395 -1.1424, 1.8898 0.3871 -1.1614, 1.8898 0.3746 -1.1777, 1.8898 0.3583 -1.1902, 1.8898 0.3393 -1.1981, 1.811 0.3189 -0.9646, 1.8314 0.3189 -0.9673, 1.8504 0.3189 -0.9751, 1.8667 0.3189 -0.9876, 1.8792 0.3189 -1.0039, 1.8871 0.3189 -1.0229, 1.811 -0.3189 -0.9646, 1.8898 -0.3189 -1.0433, 1.8871 -0.3189 -1.0229, 1.8792 -0.3189 -1.0039, 1.8667 -0.3189 -0.9876, 1.8504 -0.3189 -0.9751, 1.8314 -0.3189 -0.9673, 1.8898 -0.3393 -1.1981, 1.8898 -0.3583 -1.1902, 1.8898 -0.3746 -1.1777, 1.8898 -0.3871 -1.1614, 1.8898 -0.395 -1.1424, 2.3819 0.3871 -1.122, 2.3629 0.395 -1.122, 2.3819 0.3871 0.0, 2.3982 0.3746 0.0, 2.3982 0.3746 -1.122, 2.4107 0.3583 0.0, 2.4107 0.3583 -1.122, 2.4186 0.3393 0.0, 2.4186 0.3393 -1.122, 2.3425 0.395 -1.1424, 2.3425 0.3871 -1.1614, 2.3425 0.3746 -1.1777, 2.3425 0.3583 -1.1902, 2.3425 0.3393 -1.1981, 2.3622 0.3924 -1.1424, 2.3805 0.3848 -1.1424, 2.3602 0.3848 -1.1614, 2.3766 0.378 -1.1614, 2.3569 0.3727 -1.1777, 2.3704 0.3671 -1.1777, 2.3527 0.3569 -1.1902, 2.3622 0.353 -1.1902, 2.3478 0.3386 -1.1981, 2.3527 0.3365 -1.1981, 2.3963 0.3727 -1.1424, 2.3907 0.3671 -1.1614, 2.3819 0.3583 -1.1777, 2.3704 0.3467 -1.1902, 2.3569 0.3333 -1.1981, 2.4084 0.3569 -1.1424, 2.416 0.3386 -1.1424, 2.4016 0.353 -1.1614, 2.4084 0.3365 -1.1614, 2.3907 0.3467 -1.1777, 2.3963 0.3333 -1.1777, 2.3766 0.3386 -1.1902, 2.3805 0.3291 -1.1902, 2.3602 0.3291 -1.1981, 2.3622 0.3242 -1.1981, 2.4186 0.3189 -1.1424, 2.4107 0.3189 -1.1614, 2.3982 0.3189 -1.1777, 2.3819 0.3189 -1.1902, 2.3629 0.3189 -1.1981, 2.4186 -0.3393 0.0, 2.4186 -0.3393 -1.122, 2.4107 -0.3583 0.0, 2.4107 -0.3583 -1.122, 2.3982 -0.3746 0.0, 2.3982 -0.3746 -1.122, 2.3819 -0.3871 0.0, 2.3819 -0.3871 -1.122, 2.3629 -0.395 -1.122, 2.4186 -0.3189 -1.1424, 2.4107 -0.3189 -1.1614, 2.3982 -0.3189 -1.1777, 2.3819 -0.3189 -1.1902, 2.3629 -0.3189 -1.1981, 2.416 -0.3386 -1.1424, 2.4084 -0.3569 -1.1424, 2.4084 -0.3365 -1.1614, 2.4016 -0.353 -1.1614, 2.3963 -0.3333 -1.1777, 2.3907 -0.3467 -1.1777, 2.3805 -0.3291 -1.1902, 2.3766 -0.3386 -1.1902, 2.3622 -0.3242 -1.1981, 2.3602 -0.3291 -1.1981, 2.3963 -0.3727 -1.1424, 2.3907 -0.3671 -1.1614, 2.3819 -0.3583 -1.1777, 2.3704 -0.3467 -1.1902, 2.3569 -0.3333 -1.1981, 2.3805 -0.3848 -1.1424, 2.3622 -0.3924 -1.1424, 2.3766 -0.378 -1.1614, 2.3602 -0.3848 -1.1614, 2.3704 -0.3671 -1.1777, 2.3569 -0.3727 -1.1777, 2.3622 -0.353 -1.1902, 2.3527 -0.3569 -1.1902, 2.3527 -0.3365 -1.1981, 2.3478 -0.3386 -1.1981, 2.3425 -0.395 -1.1424, 2.3425 -0.3871 -1.1614, 2.3425 -0.3746 -1.1777, 2.3425 -0.3583 -1.1902, 2.3425 -0.3393 -1.1981, -2.3629 0.395 0.0, -2.3671 0.3937 0.0, -2.3425 0.3976 0.0, -1.752 0.3937 0.0, -1.752 0.3976 0.0, -1.752 -0.3976 0.0, -1.752 -0.3937 0.0, -2.3425 -0.3976 0.0, -2.3671 -0.3937 0.0, -2.3629 -0.395 0.0, -1.752 -0.3976 -0.9646, -1.752 -0.3189 -0.9646, -1.752 -0.3189 0.0, -1.752 0.3189 -1.122, -1.752 -0.3189 -1.122, -1.752 0.3189 -1.2008, -1.752 -0.3189 -1.2008, -1.8898 -0.3976 -1.122, -1.8898 -0.3976 -1.0433, -2.3425 -0.3976 -1.122, -1.8871 -0.3976 -1.0229, -1.8792 -0.3976 -1.0039, -1.8667 -0.3976 -0.9876, -1.8504 -0.3976 -0.9751, -1.8314 -0.3976 -0.9673, -1.811 -0.3976 -0.9646, -1.8898 0.3189 -1.2008, -1.8898 -0.3189 -1.2008, -2.3425 0.3189 -1.2008, -2.3425 -0.3189 -1.2008, -1.752 0.3976 -0.9646, -1.752 0.3189 -0.9646, -1.752 0.3189 0.0, -1.8898 0.3976 -1.0433, -1.8898 0.3976 -1.122, -2.3425 0.3976 -1.122, -1.8314 0.3976 -0.9673, -1.8504 0.3976 -0.9751, -1.8667 0.3976 -0.9876, -1.8792 0.3976 -1.0039, -1.8871 0.3976 -1.0229, -1.811 0.3976 -0.9646, -2.4213 0.3189 -1.122, -2.4213 -0.3189 -1.122, -2.4213 0.3189 0.0, -2.4213 -0.3189 0.0, -1.8898 0.3189 -1.0433, -1.8898 0.395 -1.1424, -1.8898 0.3393 -1.1981, -1.8898 0.3583 -1.1902, -1.8898 0.3746 -1.1777, -1.8898 0.3871 -1.1614, -1.8871 0.3189 -1.0229, -1.8792 0.3189 -1.0039, -1.8667 0.3189 -0.9876, -1.8504 0.3189 -0.9751, -1.8314 0.3189 -0.9673, -1.811 0.3189 -0.9646, -1.811 -0.3189 -0.9646, -1.8314 -0.3189 -0.9673, -1.8504 -0.3189 -0.9751, -1.8667 -0.3189 -0.9876, -1.8792 -0.3189 -1.0039, -1.8871 -0.3189 -1.0229, -1.8898 -0.3189 -1.0433, -1.8898 -0.395 -1.1424, -1.8898 -0.3393 -1.1981, -1.8898 -0.3583 -1.1902, -1.8898 -0.3871 -1.1614, -1.8898 -0.3746 -1.1777, -2.4186 0.3393 0.0, -2.4186 0.3393 -1.122, -2.4107 0.3583 0.0, -2.4107 0.3583 -1.122, -2.3982 0.3746 0.0, -2.3982 0.3746 -1.122, -2.3819 0.3871 0.0, -2.3819 0.3871 -1.122, -2.3629 0.395 -1.122, -2.3425 0.3393 -1.1981, -2.3425 0.3583 -1.1902, -2.3425 0.3746 -1.1777, -2.3425 0.3871 -1.1614, -2.3425 0.395 -1.1424, -2.416 0.3386 -1.1424, -2.4084 0.3569 -1.1424, -2.4084 0.3365 -1.1614, -2.4016 0.353 -1.1614, -2.3963 0.3333 -1.1777, -2.3907 0.3467 -1.1777, -2.3805 0.3291 -1.1902, -2.3766 0.3386 -1.1902, -2.3622 0.3242 -1.1981, -2.3602 0.3291 -1.1981, -2.3963 0.3727 -1.1424, -2.3907 0.3671 -1.1614, -2.3819 0.3583 -1.1777, -2.3704 0.3467 -1.1902, -2.3569 0.3333 -1.1981, -2.4186 0.3189 -1.1424, -2.4107 0.3189 -1.1614, -2.3982 0.3189 -1.1777, -2.3819 0.3189 -1.1902, -2.3629 0.3189 -1.1981, -2.3805 0.3848 -1.1424, -2.3622 0.3924 -1.1424, -2.3766 0.378 -1.1614, -2.3602 0.3848 -1.1614, -2.3704 0.3671 -1.1777, -2.3569 0.3727 -1.1777, -2.3622 0.353 -1.1902, -2.3527 0.3569 -1.1902, -2.3527 0.3365 -1.1981, -2.3478 0.3386 -1.1981, -2.3819 -0.3871 -1.122, -2.3629 -0.395 -1.122, -2.3819 -0.3871 0.0, -2.3982 -0.3746 0.0, -2.3982 -0.3746 -1.122, -2.4107 -0.3583 0.0, -2.4107 -0.3583 -1.122, -2.4186 -0.3393 0.0, -2.4186 -0.3393 -1.122, -2.3629 -0.3189 -1.1981, -2.3819 -0.3189 -1.1902, -2.3982 -0.3189 -1.1777, -2.4107 -0.3189 -1.1614, -2.4186 -0.3189 -1.1424, -2.3622 -0.3924 -1.1424, -2.3805 -0.3848 -1.1424, -2.3602 -0.3848 -1.1614, -2.3766 -0.378 -1.1614, -2.3569 -0.3727 -1.1777, -2.3704 -0.3671 -1.1777, -2.3527 -0.3569 -1.1902, -2.3622 -0.353 -1.1902, -2.3478 -0.3386 -1.1981, -2.3527 -0.3365 -1.1981, -2.3963 -0.3727 -1.1424, -2.3907 -0.3671 -1.1614, -2.3819 -0.3583 -1.1777, -2.3704 -0.3467 -1.1902, -2.3569 -0.3333 -1.1981, -2.3425 -0.395 -1.1424, -2.3425 -0.3871 -1.1614, -2.3425 -0.3746 -1.1777, -2.3425 -0.3583 -1.1902, -2.3425 -0.3393 -1.1981, -2.4084 -0.3569 -1.1424, -2.416 -0.3386 -1.1424, -2.4016 -0.353 -1.1614, -2.4084 -0.3365 -1.1614, -2.3907 -0.3467 -1.1777, -2.3963 -0.3333 -1.1777, -2.3766 -0.3386 -1.1902, -2.3805 -0.3291 -1.1902, -2.3602 -0.3291 -1.1981, -2.3622 -0.3242 -1.1981, 1.5157 0.689 -1.2598, 1.5157 0.2953 -1.2598, 1.437 0.689 -1.2598, 1.437 0.2953 -1.2598, 1.5157 0.689 -1.2141, 1.437 0.689 -1.2141, 1.437 0.6879 -1.2051, 1.5157 0.6879 -1.2051, 1.437 0.6848 -1.1965, 1.5157 0.6848 -1.1965, 1.437 0.6798 -1.1888, 1.5157 0.6798 -1.1888, 1.437 0.6731 -1.1826, 1.5157 0.6731 -1.1826, 1.437 0.6652 -1.178, 1.5157 0.6652 -1.178, 1.437 0.6564 -1.1754, 1.5157 0.6564 -1.1754, 1.5157 0.4331 -1.136, 1.437 0.4331 -1.136, 1.5157 0.301 -1.0039, 1.437 0.301 -1.0039, 1.5157 -0.3937 -1.1181, 1.5157 -0.3937 -1.0039, 1.437 -0.3937 -1.1181, 1.437 -0.3937 -1.0039, 1.5157 0.1535 -1.1181, 1.437 0.1535 -1.1181, 1.5157 -0.31 -1.0039, 1.437 -0.31 -1.0039, 1.2402 -0.689 -1.2598, 1.2402 -0.2953 -1.2598, 1.3189 -0.689 -1.2598, 1.3189 -0.2953 -1.2598, 1.2402 -0.689 -1.2141, 1.3189 -0.689 -1.2141, 1.3189 -0.6879 -1.2051, 1.2402 -0.6879 -1.2051, 1.3189 -0.6848 -1.1965, 1.2402 -0.6848 -1.1965, 1.3189 -0.6798 -1.1888, 1.2402 -0.6798 -1.1888, 1.3189 -0.6731 -1.1826, 1.2402 -0.6731 -1.1826, 1.3189 -0.6652 -1.178, 1.2402 -0.6652 -1.178, 1.3189 -0.6564 -1.1754, 1.2402 -0.6564 -1.1754, 1.2402 -0.4331 -1.136, 1.3189 -0.4331 -1.136, 1.2402 -0.301 -1.0039, 1.3189 -0.301 -1.0039, 1.2402 0.3937 -1.1181, 1.2402 0.3937 -1.0039, 1.3189 0.3937 -1.1181, 1.3189 0.3937 -1.0039, 1.2402 -0.1535 -1.1181, 1.3189 -0.1535 -1.1181, 1.122 0.689 -1.2598, 1.122 0.2953 -1.2598, 1.0433 0.689 -1.2598, 1.0433 0.2953 -1.2598, 1.122 0.689 -1.2141, 1.0433 0.689 -1.2141, 1.0433 0.6879 -1.2051, 1.122 0.6879 -1.2051, 1.0433 0.6848 -1.1965, 1.122 0.6848 -1.1965, 1.0433 0.6798 -1.1888, 1.122 0.6798 -1.1888, 1.0433 0.6731 -1.1826, 1.122 0.6731 -1.1826, 1.0433 0.6652 -1.178, 1.122 0.6652 -1.178, 1.0433 0.6564 -1.1754, 1.122 0.6564 -1.1754, 1.122 0.4331 -1.136, 1.0433 0.4331 -1.136, 1.122 0.301 -1.0039, 1.0433 0.301 -1.0039, 1.122 -0.3937 -1.1181, 1.122 -0.3937 -1.0039, 1.0433 -0.3937 -1.1181, 1.0433 -0.3937 -1.0039, 1.122 0.1535 -1.1181, 1.0433 0.1535 -1.1181, 1.122 -0.31 -1.0039, 1.0433 -0.31 -1.0039, 0.8465 -0.689 -1.2598, 0.8465 -0.2953 -1.2598, 0.9252 -0.689 -1.2598, 0.9252 -0.2953 -1.2598, 0.8465 -0.689 -1.2141, 0.9252 -0.689 -1.2141, 0.9252 -0.6879 -1.2051, 0.8465 -0.6879 -1.2051, 0.9252 -0.6848 -1.1965, 0.8465 -0.6848 -1.1965, 0.9252 -0.6798 -1.1888, 0.8465 -0.6798 -1.1888, 0.9252 -0.6731 -1.1826, 0.8465 -0.6731 -1.1826, 0.9252 -0.6652 -1.178, 0.8465 -0.6652 -1.178, 0.9252 -0.6564 -1.1754, 0.8465 -0.6564 -1.1754, 0.8465 -0.4331 -1.136, 0.9252 -0.4331 -1.136, 0.8465 -0.301 -1.0039, 0.9252 -0.301 -1.0039, 0.8465 0.3937 -1.1181, 0.8465 0.3937 -1.0039, 0.9252 0.3937 -1.1181, 0.9252 0.3937 -1.0039, 0.8465 -0.1535 -1.1181, 0.9252 -0.1535 -1.1181, 0.7283 0.689 -1.2598, 0.7283 0.2953 -1.2598, 0.6496 0.689 -1.2598, 0.6496 0.2953 -1.2598, 0.7283 0.689 -1.2141, 0.6496 0.689 -1.2141, 0.6496 0.6879 -1.2051, 0.7283 0.6879 -1.2051, 0.6496 0.6848 -1.1965, 0.7283 0.6848 -1.1965, 0.6496 0.6798 -1.1888, 0.7283 0.6798 -1.1888, 0.6496 0.6731 -1.1826, 0.7283 0.6731 -1.1826, 0.6496 0.6652 -1.178, 0.7283 0.6652 -1.178, 0.6496 0.6564 -1.1754, 0.7283 0.6564 -1.1754, 0.7283 0.4331 -1.136, 0.6496 0.4331 -1.136, 0.7283 0.301 -1.0039, 0.6496 0.301 -1.0039, 0.7283 -0.3937 -1.1181, 0.7283 -0.3937 -1.0039, 0.6496 -0.3937 -1.1181, 0.6496 -0.3937 -1.0039, 0.7283 0.1535 -1.1181, 0.6496 0.1535 -1.1181, 0.7283 -0.31 -1.0039, 0.6496 -0.31 -1.0039, 0.4528 -0.689 -1.2598, 0.4528 -0.2953 -1.2598, 0.5315 -0.689 -1.2598, 0.5315 -0.2953 -1.2598, 0.4528 -0.689 -1.2141, 0.5315 -0.689 -1.2141, 0.5315 -0.6879 -1.2051, 0.4528 -0.6879 -1.2051, 0.5315 -0.6848 -1.1965, 0.4528 -0.6848 -1.1965, 0.5315 -0.6798 -1.1888, 0.4528 -0.6798 -1.1888, 0.5315 -0.6731 -1.1826, 0.4528 -0.6731 -1.1826, 0.5315 -0.6652 -1.178, 0.4528 -0.6652 -1.178, 0.5315 -0.6564 -1.1754, 0.4528 -0.6564 -1.1754, 0.4528 -0.4331 -1.136, 0.5315 -0.4331 -1.136, 0.4528 -0.301 -1.0039, 0.5315 -0.301 -1.0039, 0.4528 0.3937 -1.1181, 0.4528 0.3937 -1.0039, 0.5315 0.3937 -1.1181, 0.5315 0.3937 -1.0039, 0.4528 -0.1535 -1.1181, 0.5315 -0.1535 -1.1181, 0.3346 0.689 -1.2598, 0.3346 0.2953 -1.2598, 0.2559 0.689 -1.2598, 0.2559 0.2953 -1.2598, 0.3346 0.689 -1.2141, 0.2559 0.689 -1.2141, 0.2559 0.6879 -1.2051, 0.3346 0.6879 -1.2051, 0.2559 0.6848 -1.1965, 0.3346 0.6848 -1.1965, 0.2559 0.6798 -1.1888, 0.3346 0.6798 -1.1888, 0.2559 0.6731 -1.1826, 0.3346 0.6731 -1.1826, 0.2559 0.6652 -1.178, 0.3346 0.6652 -1.178, 0.2559 0.6564 -1.1754, 0.3346 0.6564 -1.1754, 0.3346 0.4331 -1.136, 0.2559 0.4331 -1.136, 0.3346 0.301 -1.0039, 0.2559 0.301 -1.0039, 0.3346 -0.3937 -1.1181, 0.3346 -0.3937 -1.0039, 0.2559 -0.3937 -1.1181, 0.2559 -0.3937 -1.0039, 0.3346 0.1535 -1.1181, 0.2559 0.1535 -1.1181, 0.3346 -0.31 -1.0039, 0.2559 -0.31 -1.0039, 0.0591 -0.689 -1.2598, 0.0591 -0.2953 -1.2598, 0.1378 -0.689 -1.2598, 0.1378 -0.2953 -1.2598, 0.0591 -0.689 -1.2141, 0.1378 -0.689 -1.2141, 0.1378 -0.6879 -1.2051, 0.0591 -0.6879 -1.2051, 0.1378 -0.6848 -1.1965, 0.0591 -0.6848 -1.1965, 0.1378 -0.6798 -1.1888, 0.0591 -0.6798 -1.1888, 0.1378 -0.6731 -1.1826, 0.0591 -0.6731 -1.1826, 0.1378 -0.6652 -1.178, 0.0591 -0.6652 -1.178, 0.1378 -0.6564 -1.1754, 0.0591 -0.6564 -1.1754, 0.0591 -0.4331 -1.136, 0.1378 -0.4331 -1.136, 0.0591 -0.301 -1.0039, 0.1378 -0.301 -1.0039, 0.0591 0.3937 -1.1181, 0.0591 0.3937 -1.0039, 0.1378 0.3937 -1.1181, 0.1378 0.3937 -1.0039, 0.0591 -0.1535 -1.1181, 0.1378 -0.1535 -1.1181, -0.0591 0.689 -1.2598, -0.0591 0.2953 -1.2598, -0.1378 0.689 -1.2598, -0.1378 0.2953 -1.2598, -0.0591 0.689 -1.2141, -0.1378 0.689 -1.2141, -0.1378 0.6879 -1.2051, -0.0591 0.6879 -1.2051, -0.1378 0.6848 -1.1965, -0.0591 0.6848 -1.1965, -0.1378 0.6798 -1.1888, -0.0591 0.6798 -1.1888, -0.1378 0.6731 -1.1826, -0.0591 0.6731 -1.1826, -0.1378 0.6652 -1.178, -0.0591 0.6652 -1.178, -0.1378 0.6564 -1.1754, -0.0591 0.6564 -1.1754, -0.0591 0.4331 -1.136, -0.1378 0.4331 -1.136, -0.0591 0.301 -1.0039, -0.1378 0.301 -1.0039, -0.0591 -0.3937 -1.1181, -0.0591 -0.3937 -1.0039, -0.1378 -0.3937 -1.1181, -0.1378 -0.3937 -1.0039, -0.0591 0.1535 -1.1181, -0.1378 0.1535 -1.1181, -0.0591 -0.31 -1.0039, -0.1378 -0.31 -1.0039, -0.3346 -0.689 -1.2598, -0.3346 -0.2953 -1.2598, -0.2559 -0.689 -1.2598, -0.2559 -0.2953 -1.2598, -0.3346 -0.689 -1.2141, -0.2559 -0.689 -1.2141, -0.2559 -0.6879 -1.2051, -0.3346 -0.6879 -1.2051, -0.2559 -0.6848 -1.1965, -0.3346 -0.6848 -1.1965, -0.2559 -0.6798 -1.1888, -0.3346 -0.6798 -1.1888, -0.2559 -0.6731 -1.1826, -0.3346 -0.6731 -1.1826, -0.2559 -0.6652 -1.178, -0.3346 -0.6652 -1.178, -0.2559 -0.6564 -1.1754, -0.3346 -0.6564 -1.1754, -0.3346 -0.4331 -1.136, -0.2559 -0.4331 -1.136, -0.3346 -0.301 -1.0039, -0.2559 -0.301 -1.0039, -0.3346 0.3937 -1.1181, -0.3346 0.3937 -1.0039, -0.2559 0.3937 -1.1181, -0.2559 0.3937 -1.0039, -0.3346 -0.1535 -1.1181, -0.2559 -0.1535 -1.1181, -0.4528 0.689 -1.2598, -0.4528 0.2953 -1.2598, -0.5315 0.689 -1.2598, -0.5315 0.2953 -1.2598, -0.4528 0.689 -1.2141, -0.5315 0.689 -1.2141, -0.5315 0.6879 -1.2051, -0.4528 0.6879 -1.2051, -0.5315 0.6848 -1.1965, -0.4528 0.6848 -1.1965, -0.5315 0.6798 -1.1888, -0.4528 0.6798 -1.1888, -0.5315 0.6731 -1.1826, -0.4528 0.6731 -1.1826, -0.5315 0.6652 -1.178, -0.4528 0.6652 -1.178, -0.5315 0.6564 -1.1754, -0.4528 0.6564 -1.1754, -0.4528 0.4331 -1.136, -0.5315 0.4331 -1.136, -0.4528 0.301 -1.0039, -0.5315 0.301 -1.0039, -0.4528 -0.3937 -1.1181, -0.4528 -0.3937 -1.0039, -0.5315 -0.3937 -1.1181, -0.5315 -0.3937 -1.0039, -0.4528 0.1535 -1.1181, -0.5315 0.1535 -1.1181, -0.4528 -0.31 -1.0039, -0.5315 -0.31 -1.0039, -0.7283 -0.689 -1.2598, -0.7283 -0.2953 -1.2598, -0.6496 -0.689 -1.2598, -0.6496 -0.2953 -1.2598, -0.7283 -0.689 -1.2141, -0.6496 -0.689 -1.2141, -0.6496 -0.6879 -1.2051, -0.7283 -0.6879 -1.2051, -0.6496 -0.6848 -1.1965, -0.7283 -0.6848 -1.1965, -0.6496 -0.6798 -1.1888, -0.7283 -0.6798 -1.1888, -0.6496 -0.6731 -1.1826, -0.7283 -0.6731 -1.1826, -0.6496 -0.6652 -1.178, -0.7283 -0.6652 -1.178, -0.6496 -0.6564 -1.1754, -0.7283 -0.6564 -1.1754, -0.7283 -0.4331 -1.136, -0.6496 -0.4331 -1.136, -0.7283 -0.301 -1.0039, -0.6496 -0.301 -1.0039, -0.7283 0.3937 -1.1181, -0.7283 0.3937 -1.0039, -0.6496 0.3937 -1.1181, -0.6496 0.3937 -1.0039, -0.7283 -0.1535 -1.1181, -0.6496 -0.1535 -1.1181, -0.8465 0.689 -1.2598, -0.8465 0.2953 -1.2598, -0.9252 0.689 -1.2598, -0.9252 0.2953 -1.2598, -0.8465 0.689 -1.2141, -0.9252 0.689 -1.2141, -0.9252 0.6879 -1.2051, -0.8465 0.6879 -1.2051, -0.9252 0.6848 -1.1965, -0.8465 0.6848 -1.1965, -0.9252 0.6798 -1.1888, -0.8465 0.6798 -1.1888, -0.9252 0.6731 -1.1826, -0.8465 0.6731 -1.1826, -0.9252 0.6652 -1.178, -0.8465 0.6652 -1.178, -0.9252 0.6564 -1.1754, -0.8465 0.6564 -1.1754, -0.8465 0.4331 -1.136, -0.9252 0.4331 -1.136, -0.8465 0.301 -1.0039, -0.9252 0.301 -1.0039, -0.8465 -0.3937 -1.1181, -0.8465 -0.3937 -1.0039, -0.9252 -0.3937 -1.1181, -0.9252 -0.3937 -1.0039, -0.8465 0.1535 -1.1181, -0.9252 0.1535 -1.1181, -0.8465 -0.31 -1.0039, -0.9252 -0.31 -1.0039, -1.122 -0.689 -1.2598, -1.122 -0.2953 -1.2598, -1.0433 -0.689 -1.2598, -1.0433 -0.2953 -1.2598, -1.122 -0.689 -1.2141, -1.0433 -0.689 -1.2141, -1.0433 -0.6879 -1.2051, -1.122 -0.6879 -1.2051, -1.0433 -0.6848 -1.1965, -1.122 -0.6848 -1.1965, -1.0433 -0.6798 -1.1888, -1.122 -0.6798 -1.1888, -1.0433 -0.6731 -1.1826, -1.122 -0.6731 -1.1826, -1.0433 -0.6652 -1.178, -1.122 -0.6652 -1.178, -1.0433 -0.6564 -1.1754, -1.122 -0.6564 -1.1754, -1.122 -0.4331 -1.136, -1.0433 -0.4331 -1.136, -1.122 -0.301 -1.0039, -1.0433 -0.301 -1.0039, -1.122 0.3937 -1.1181, -1.122 0.3937 -1.0039, -1.0433 0.3937 -1.1181, -1.0433 0.3937 -1.0039, -1.122 -0.1535 -1.1181, -1.0433 -0.1535 -1.1181, -1.2402 0.689 -1.2598, -1.2402 0.2953 -1.2598, -1.3189 0.689 -1.2598, -1.3189 0.2953 -1.2598, -1.2402 0.689 -1.2141, -1.3189 0.689 -1.2141, -1.3189 0.6879 -1.2051, -1.2402 0.6879 -1.2051, -1.3189 0.6848 -1.1965, -1.2402 0.6848 -1.1965, -1.3189 0.6798 -1.1888, -1.2402 0.6798 -1.1888, -1.3189 0.6731 -1.1826, -1.2402 0.6731 -1.1826, -1.3189 0.6652 -1.178, -1.2402 0.6652 -1.178, -1.3189 0.6564 -1.1754, -1.2402 0.6564 -1.1754, -1.2402 0.4331 -1.136, -1.3189 0.4331 -1.136, -1.2402 0.301 -1.0039, -1.3189 0.301 -1.0039, -1.2402 -0.3937 -1.1181, -1.2402 -0.3937 -1.0039, -1.3189 -0.3937 -1.1181, -1.3189 -0.3937 -1.0039, -1.2402 0.1535 -1.1181, -1.3189 0.1535 -1.1181, -1.2402 -0.31 -1.0039, -1.3189 -0.31 -1.0039, -1.5157 -0.689 -1.2598, -1.5157 -0.2953 -1.2598, -1.437 -0.689 -1.2598, -1.437 -0.2953 -1.2598, -1.5157 -0.689 -1.2141, -1.437 -0.689 -1.2141, -1.437 -0.6879 -1.2051, -1.5157 -0.6879 -1.2051, -1.437 -0.6848 -1.1965, -1.5157 -0.6848 -1.1965, -1.437 -0.6798 -1.1888, -1.5157 -0.6798 -1.1888, -1.437 -0.6731 -1.1826, -1.5157 -0.6731 -1.1826, -1.437 -0.6652 -1.178, -1.5157 -0.6652 -1.178, -1.437 -0.6564 -1.1754, -1.5157 -0.6564 -1.1754, -1.5157 -0.4331 -1.136, -1.437 -0.4331 -1.136, -1.5157 -0.301 -1.0039, -1.437 -0.301 -1.0039, -1.5157 0.3937 -1.1181, -1.5157 0.3937 -1.0039, -1.437 0.3937 -1.1181, -1.437 0.3937 -1.0039, -1.5157 -0.1535 -1.1181, -1.437 -0.1535 -1.1181, -1.437 -0.1535 -1.1181
            ]
        }
        coordIndex [
            0,1,2,-1,2,1,3,-1,2,3,4,-1,5,6,7,-1,7,6,8,-1,7,8,9,-1,10,9,11,-1,11,9,8,-1,11,8,12,-1,13,14,15,-1,15,14,16,-1,17,18,19,-1,20,21,7,-1,21,22,7,-1,7,22,23,-1,7,23,19,-1,19,23,24,-1,19,24,17,-1,20,7,25,-1,25,7,9,-1,25,9,10,-1,15,16,26,-1,26,16,27,-1,26,27,28,-1,28,27,29,-1,0,30,1,-1,1,30,31,-1,1,31,32,-1,33,34,35,-1,35,34,36,-1,35,36,2,-1,2,36,37,-1,2,37,38,-1,38,39,2,-1,2,39,40,-1,2,40,0,-1,0,40,41,-1,0,41,30,-1,42,43,44,-1,44,43,45,-1,46,34,33,-1,33,47,46,-1,46,47,48,-1,46,48,49,-1,49,50,46,-1,46,50,51,-1,46,51,27,-1,52,41,53,-1,53,41,40,-1,53,40,54,-1,54,40,39,-1,54,39,55,-1,55,39,38,-1,55,38,56,-1,56,38,37,-1,56,37,57,-1,57,37,36,-1,57,36,46,-1,46,36,34,-1,52,31,41,-1,41,31,30,-1,11,58,10,-1,10,58,25,-1,59,17,60,-1,60,17,24,-1,60,24,61,-1,61,24,23,-1,61,23,62,-1,62,23,22,-1,62,22,63,-1,63,22,21,-1,63,21,64,-1,64,21,20,-1,64,20,58,-1,58,20,25,-1,18,17,59,-1,26,65,59,-1,59,65,66,-1,59,66,67,-1,67,68,59,-1,59,68,69,-1,59,69,18,-1,35,2,4,-1,3,70,4,-1,4,70,71,-1,4,71,35,-1,3,72,70,-1,70,72,73,-1,70,73,74,-1,74,73,75,-1,74,75,76,-1,76,75,77,-1,76,77,78,-1,78,77,45,-1,78,45,43,-1,33,35,79,-1,33,79,47,-1,47,79,80,-1,47,80,48,-1,48,80,81,-1,48,81,49,-1,49,81,82,-1,49,82,50,-1,50,82,83,-1,50,83,51,-1,51,83,29,-1,51,29,27,-1,71,70,84,-1,84,70,85,-1,84,85,86,-1,86,85,87,-1,86,87,88,-1,88,87,89,-1,88,89,90,-1,90,89,91,-1,90,91,92,-1,92,91,93,-1,92,93,29,-1,70,74,85,-1,85,74,94,-1,85,94,87,-1,87,94,95,-1,87,95,89,-1,89,95,96,-1,89,96,91,-1,91,96,97,-1,91,97,93,-1,93,97,98,-1,93,98,29,-1,35,71,79,-1,79,71,84,-1,79,84,80,-1,80,84,86,-1,80,86,81,-1,81,86,88,-1,81,88,82,-1,82,88,90,-1,82,90,83,-1,83,90,92,-1,83,92,29,-1,76,78,99,-1,99,78,100,-1,99,100,101,-1,101,100,102,-1,101,102,103,-1,103,102,104,-1,103,104,105,-1,105,104,106,-1,105,106,107,-1,107,106,108,-1,107,108,29,-1,78,43,100,-1,100,43,109,-1,100,109,102,-1,102,109,110,-1,102,110,104,-1,104,110,111,-1,104,111,106,-1,106,111,112,-1,106,112,108,-1,108,112,113,-1,108,113,29,-1,74,76,94,-1,94,76,99,-1,94,99,95,-1,95,99,101,-1,95,101,96,-1,96,101,103,-1,96,103,97,-1,97,103,105,-1,97,105,98,-1,98,105,107,-1,98,107,29,-1,42,44,114,-1,42,114,115,-1,115,114,116,-1,115,116,117,-1,117,116,118,-1,117,118,119,-1,119,118,120,-1,119,120,121,-1,121,120,6,-1,121,6,122,-1,6,5,122,-1,122,5,7,-1,122,7,19,-1,43,42,123,-1,43,123,109,-1,109,123,124,-1,109,124,110,-1,110,124,125,-1,110,125,111,-1,111,125,126,-1,111,126,112,-1,112,126,127,-1,112,127,113,-1,113,127,28,-1,113,28,29,-1,115,117,128,-1,128,117,129,-1,128,129,130,-1,130,129,131,-1,130,131,132,-1,132,131,133,-1,132,133,134,-1,134,133,135,-1,134,135,136,-1,136,135,137,-1,136,137,28,-1,117,119,129,-1,129,119,138,-1,129,138,131,-1,131,138,139,-1,131,139,133,-1,133,139,140,-1,133,140,135,-1,135,140,141,-1,135,141,137,-1,137,141,142,-1,137,142,28,-1,42,115,123,-1,123,115,128,-1,123,128,124,-1,124,128,130,-1,124,130,125,-1,125,130,132,-1,125,132,126,-1,126,132,134,-1,126,134,127,-1,127,134,136,-1,127,136,28,-1,121,122,143,-1,143,122,144,-1,143,144,145,-1,145,144,146,-1,145,146,147,-1,147,146,148,-1,147,148,149,-1,149,148,150,-1,149,150,151,-1,151,150,152,-1,151,152,28,-1,122,19,144,-1,144,19,153,-1,144,153,146,-1,146,153,154,-1,146,154,148,-1,148,154,155,-1,148,155,150,-1,150,155,156,-1,150,156,152,-1,152,156,157,-1,152,157,28,-1,119,121,138,-1,138,121,143,-1,138,143,139,-1,139,143,145,-1,139,145,140,-1,140,145,147,-1,140,147,141,-1,141,147,149,-1,141,149,142,-1,142,149,151,-1,142,151,28,-1,19,18,69,-1,19,69,153,-1,153,69,68,-1,153,68,154,-1,154,68,67,-1,154,67,155,-1,155,67,66,-1,155,66,156,-1,156,66,65,-1,156,65,157,-1,157,65,26,-1,157,26,28,-1,158,159,160,-1,160,159,161,-1,160,161,162,-1,163,164,165,-1,165,164,166,-1,165,166,167,-1,163,168,164,-1,164,168,169,-1,164,169,170,-1,171,172,173,-1,173,172,174,-1,175,176,177,-1,177,176,178,-1,177,178,165,-1,165,178,179,-1,165,179,180,-1,180,181,165,-1,165,181,182,-1,165,182,163,-1,163,182,183,-1,163,183,168,-1,173,174,184,-1,184,174,185,-1,184,185,186,-1,186,185,187,-1,188,162,189,-1,189,162,161,-1,189,161,190,-1,191,192,193,-1,194,195,160,-1,195,196,160,-1,160,196,197,-1,160,197,193,-1,193,197,198,-1,193,198,191,-1,194,160,199,-1,199,160,162,-1,199,162,188,-1,200,201,202,-1,202,201,203,-1,192,191,204,-1,192,204,205,-1,184,206,204,-1,204,206,207,-1,207,208,204,-1,204,208,209,-1,204,209,205,-1,204,191,210,-1,210,191,198,-1,210,198,211,-1,211,198,197,-1,211,197,212,-1,212,197,196,-1,212,196,213,-1,213,196,195,-1,213,195,214,-1,214,195,194,-1,214,194,215,-1,215,194,199,-1,189,215,188,-1,188,215,199,-1,216,169,183,-1,183,169,168,-1,216,183,217,-1,217,183,182,-1,217,182,218,-1,218,182,181,-1,218,181,219,-1,219,181,180,-1,219,180,220,-1,220,180,179,-1,220,179,221,-1,221,179,178,-1,221,178,222,-1,222,178,176,-1,176,175,222,-1,222,175,223,-1,185,222,224,-1,224,222,225,-1,223,226,222,-1,222,226,227,-1,222,227,225,-1,200,202,228,-1,200,228,229,-1,229,228,230,-1,229,230,231,-1,231,230,232,-1,231,232,233,-1,233,232,234,-1,233,234,235,-1,235,234,159,-1,235,159,236,-1,159,158,236,-1,236,158,160,-1,236,160,193,-1,184,186,237,-1,184,237,206,-1,206,237,238,-1,206,238,207,-1,207,238,239,-1,207,239,208,-1,208,239,240,-1,208,240,209,-1,209,240,241,-1,209,241,205,-1,205,241,193,-1,205,193,192,-1,229,231,242,-1,242,231,243,-1,242,243,244,-1,244,243,245,-1,244,245,246,-1,246,245,247,-1,246,247,248,-1,248,247,249,-1,248,249,250,-1,250,249,251,-1,250,251,186,-1,231,233,243,-1,243,233,252,-1,243,252,245,-1,245,252,253,-1,245,253,247,-1,247,253,254,-1,247,254,249,-1,249,254,255,-1,249,255,251,-1,251,255,256,-1,251,256,186,-1,200,229,257,-1,257,229,242,-1,257,242,258,-1,258,242,244,-1,258,244,259,-1,259,244,246,-1,259,246,260,-1,260,246,248,-1,260,248,261,-1,261,248,250,-1,261,250,186,-1,235,236,262,-1,262,236,263,-1,262,263,264,-1,264,263,265,-1,264,265,266,-1,266,265,267,-1,266,267,268,-1,268,267,269,-1,268,269,270,-1,270,269,271,-1,270,271,186,-1,236,193,263,-1,263,193,241,-1,263,241,265,-1,265,241,240,-1,265,240,267,-1,267,240,239,-1,267,239,269,-1,269,239,238,-1,269,238,271,-1,271,238,237,-1,271,237,186,-1,233,235,252,-1,252,235,262,-1,252,262,253,-1,253,262,264,-1,253,264,254,-1,254,264,266,-1,254,266,255,-1,255,266,268,-1,255,268,256,-1,256,268,270,-1,256,270,186,-1,177,165,167,-1,166,272,167,-1,167,272,273,-1,167,273,177,-1,166,274,272,-1,272,274,275,-1,272,275,276,-1,276,275,277,-1,276,277,278,-1,278,277,279,-1,278,279,280,-1,280,279,203,-1,280,203,201,-1,186,187,281,-1,186,281,261,-1,261,281,282,-1,261,282,260,-1,260,282,283,-1,260,283,259,-1,259,283,284,-1,259,284,258,-1,258,284,285,-1,258,285,257,-1,257,285,201,-1,257,201,200,-1,273,272,286,-1,286,272,287,-1,286,287,288,-1,288,287,289,-1,288,289,290,-1,290,289,291,-1,290,291,292,-1,292,291,293,-1,292,293,294,-1,294,293,295,-1,294,295,187,-1,272,276,287,-1,287,276,296,-1,287,296,289,-1,289,296,297,-1,289,297,291,-1,291,297,298,-1,291,298,293,-1,293,298,299,-1,293,299,295,-1,295,299,300,-1,295,300,187,-1,177,273,301,-1,301,273,286,-1,301,286,302,-1,302,286,288,-1,302,288,303,-1,303,288,290,-1,303,290,304,-1,304,290,292,-1,304,292,305,-1,305,292,294,-1,305,294,187,-1,278,280,306,-1,306,280,307,-1,306,307,308,-1,308,307,309,-1,308,309,310,-1,310,309,311,-1,310,311,312,-1,312,311,313,-1,312,313,314,-1,314,313,315,-1,314,315,187,-1,280,201,307,-1,307,201,285,-1,307,285,309,-1,309,285,284,-1,309,284,311,-1,311,284,283,-1,311,283,313,-1,313,283,282,-1,313,282,315,-1,315,282,281,-1,315,281,187,-1,276,278,296,-1,296,278,306,-1,296,306,297,-1,297,306,308,-1,297,308,298,-1,298,308,310,-1,298,310,299,-1,299,310,312,-1,299,312,300,-1,300,312,314,-1,300,314,187,-1,187,185,224,-1,187,224,305,-1,305,224,225,-1,305,225,304,-1,304,225,227,-1,304,227,303,-1,303,227,226,-1,303,226,302,-1,302,226,223,-1,302,223,301,-1,301,223,175,-1,301,175,177,-1,316,317,318,-1,318,317,319,-1,320,316,321,-1,321,316,318,-1,320,321,322,-1,320,322,323,-1,323,322,324,-1,323,324,325,-1,325,324,326,-1,325,326,327,-1,327,326,328,-1,327,328,329,-1,329,328,330,-1,329,330,331,-1,331,330,332,-1,331,332,333,-1,334,333,335,-1,335,333,332,-1,336,334,337,-1,337,334,335,-1,338,339,340,-1,340,339,341,-1,342,338,343,-1,343,338,340,-1,317,342,319,-1,319,342,343,-1,317,316,320,-1,320,333,317,-1,317,333,334,-1,317,334,342,-1,342,334,336,-1,342,336,338,-1,338,336,344,-1,338,344,339,-1,325,327,323,-1,323,327,329,-1,323,329,320,-1,320,329,331,-1,320,331,333,-1,332,318,335,-1,335,318,319,-1,335,319,337,-1,337,319,343,-1,337,343,345,-1,345,343,340,-1,345,340,341,-1,330,322,332,-1,332,322,321,-1,332,321,318,-1,330,328,322,-1,322,328,326,-1,322,326,324,-1,346,347,348,-1,348,347,349,-1,350,346,351,-1,351,346,348,-1,350,351,352,-1,350,352,353,-1,353,352,354,-1,353,354,355,-1,355,354,356,-1,355,356,357,-1,357,356,358,-1,357,358,359,-1,359,358,360,-1,359,360,361,-1,361,360,362,-1,361,362,363,-1,364,363,365,-1,365,363,362,-1,366,364,367,-1,367,364,365,-1,368,369,370,-1,370,369,371,-1,372,368,373,-1,373,368,370,-1,347,372,349,-1,349,372,373,-1,347,346,350,-1,369,368,366,-1,366,368,372,-1,366,372,364,-1,364,372,347,-1,364,347,363,-1,363,347,350,-1,355,357,353,-1,353,357,359,-1,353,359,350,-1,350,359,361,-1,350,361,363,-1,370,371,373,-1,373,371,367,-1,373,367,349,-1,349,367,365,-1,349,365,348,-1,348,365,362,-1,360,352,362,-1,362,352,351,-1,362,351,348,-1,360,358,352,-1,352,358,356,-1,352,356,354,-1,374,375,376,-1,376,375,377,-1,378,374,379,-1,379,374,376,-1,378,379,380,-1,378,380,381,-1,381,380,382,-1,381,382,383,-1,383,382,384,-1,383,384,385,-1,385,384,386,-1,385,386,387,-1,387,386,388,-1,387,388,389,-1,389,388,390,-1,389,390,391,-1,392,391,393,-1,393,391,390,-1,394,392,395,-1,395,392,393,-1,396,397,398,-1,398,397,399,-1,400,396,401,-1,401,396,398,-1,375,400,377,-1,377,400,401,-1,375,374,378,-1,378,391,375,-1,375,391,392,-1,375,392,400,-1,400,392,394,-1,400,394,396,-1,396,394,402,-1,396,402,397,-1,383,385,381,-1,381,385,387,-1,381,387,378,-1,378,387,389,-1,378,389,391,-1,390,376,393,-1,393,376,377,-1,393,377,395,-1,395,377,401,-1,395,401,403,-1,403,401,398,-1,403,398,399,-1,388,380,390,-1,390,380,379,-1,390,379,376,-1,388,386,380,-1,380,386,384,-1,380,384,382,-1,404,405,406,-1,406,405,407,-1,408,404,409,-1,409,404,406,-1,408,409,410,-1,408,410,411,-1,411,410,412,-1,411,412,413,-1,413,412,414,-1,413,414,415,-1,415,414,416,-1,415,416,417,-1,417,416,418,-1,417,418,419,-1,419,418,420,-1,419,420,421,-1,422,421,423,-1,423,421,420,-1,424,422,425,-1,425,422,423,-1,426,427,428,-1,428,427,429,-1,430,426,431,-1,431,426,428,-1,405,430,407,-1,407,430,431,-1,405,404,408,-1,427,426,424,-1,424,426,430,-1,424,430,422,-1,422,430,405,-1,422,405,421,-1,421,405,408,-1,413,415,411,-1,411,415,417,-1,411,417,408,-1,408,417,419,-1,408,419,421,-1,428,429,431,-1,431,429,425,-1,431,425,407,-1,407,425,423,-1,407,423,406,-1,406,423,420,-1,418,410,420,-1,420,410,409,-1,420,409,406,-1,418,416,410,-1,410,416,414,-1,410,414,412,-1,432,433,434,-1,434,433,435,-1,436,432,437,-1,437,432,434,-1,436,437,438,-1,436,438,439,-1,439,438,440,-1,439,440,441,-1,441,440,442,-1,441,442,443,-1,443,442,444,-1,443,444,445,-1,445,444,446,-1,445,446,447,-1,447,446,448,-1,447,448,449,-1,450,449,451,-1,451,449,448,-1,452,450,453,-1,453,450,451,-1,454,455,456,-1,456,455,457,-1,458,454,459,-1,459,454,456,-1,433,458,435,-1,435,458,459,-1,433,432,436,-1,436,449,433,-1,433,449,450,-1,433,450,458,-1,458,450,452,-1,458,452,454,-1,454,452,460,-1,454,460,455,-1,441,443,439,-1,439,443,445,-1,439,445,436,-1,436,445,447,-1,436,447,449,-1,448,434,451,-1,451,434,435,-1,451,435,453,-1,453,435,459,-1,453,459,461,-1,461,459,456,-1,461,456,457,-1,446,438,448,-1,448,438,437,-1,448,437,434,-1,446,444,438,-1,438,444,442,-1,438,442,440,-1,462,463,464,-1,464,463,465,-1,466,462,467,-1,467,462,464,-1,466,467,468,-1,466,468,469,-1,469,468,470,-1,469,470,471,-1,471,470,472,-1,471,472,473,-1,473,472,474,-1,473,474,475,-1,475,474,476,-1,475,476,477,-1,477,476,478,-1,477,478,479,-1,480,479,481,-1,481,479,478,-1,482,480,483,-1,483,480,481,-1,484,485,486,-1,486,485,487,-1,488,484,489,-1,489,484,486,-1,463,488,465,-1,465,488,489,-1,463,462,466,-1,485,484,482,-1,482,484,488,-1,482,488,480,-1,480,488,463,-1,480,463,479,-1,479,463,466,-1,471,473,469,-1,469,473,475,-1,469,475,466,-1,466,475,477,-1,466,477,479,-1,486,487,489,-1,489,487,483,-1,489,483,465,-1,465,483,481,-1,465,481,464,-1,464,481,478,-1,476,468,478,-1,478,468,467,-1,478,467,464,-1,476,474,468,-1,468,474,472,-1,468,472,470,-1,490,491,492,-1,492,491,493,-1,494,490,495,-1,495,490,492,-1,494,495,496,-1,494,496,497,-1,497,496,498,-1,497,498,499,-1,499,498,500,-1,499,500,501,-1,501,500,502,-1,501,502,503,-1,503,502,504,-1,503,504,505,-1,505,504,506,-1,505,506,507,-1,508,507,509,-1,509,507,506,-1,510,508,511,-1,511,508,509,-1,512,513,514,-1,514,513,515,-1,516,512,517,-1,517,512,514,-1,491,516,493,-1,493,516,517,-1,491,490,494,-1,494,507,491,-1,491,507,508,-1,491,508,516,-1,516,508,510,-1,516,510,512,-1,512,510,518,-1,512,518,513,-1,499,501,497,-1,497,501,503,-1,497,503,494,-1,494,503,505,-1,494,505,507,-1,506,492,509,-1,509,492,493,-1,509,493,511,-1,511,493,517,-1,511,517,519,-1,519,517,514,-1,519,514,515,-1,504,496,506,-1,506,496,495,-1,506,495,492,-1,504,502,496,-1,496,502,500,-1,496,500,498,-1,520,521,522,-1,522,521,523,-1,524,520,525,-1,525,520,522,-1,524,525,526,-1,524,526,527,-1,527,526,528,-1,527,528,529,-1,529,528,530,-1,529,530,531,-1,531,530,532,-1,531,532,533,-1,533,532,534,-1,533,534,535,-1,535,534,536,-1,535,536,537,-1,538,537,539,-1,539,537,536,-1,540,538,541,-1,541,538,539,-1,542,543,544,-1,544,543,545,-1,546,542,547,-1,547,542,544,-1,521,546,523,-1,523,546,547,-1,521,520,524,-1,543,542,540,-1,540,542,546,-1,540,546,538,-1,538,546,521,-1,538,521,537,-1,537,521,524,-1,529,531,527,-1,527,531,533,-1,527,533,524,-1,524,533,535,-1,524,535,537,-1,544,545,547,-1,547,545,541,-1,547,541,523,-1,523,541,539,-1,523,539,522,-1,522,539,536,-1,534,526,536,-1,536,526,525,-1,536,525,522,-1,534,532,526,-1,526,532,530,-1,526,530,528,-1,548,549,550,-1,550,549,551,-1,552,548,553,-1,553,548,550,-1,552,553,554,-1,552,554,555,-1,555,554,556,-1,555,556,557,-1,557,556,558,-1,557,558,559,-1,559,558,560,-1,559,560,561,-1,561,560,562,-1,561,562,563,-1,563,562,564,-1,563,564,565,-1,566,565,567,-1,567,565,564,-1,568,566,569,-1,569,566,567,-1,570,571,572,-1,572,571,573,-1,574,570,575,-1,575,570,572,-1,549,574,551,-1,551,574,575,-1,549,548,552,-1,552,565,549,-1,549,565,566,-1,549,566,574,-1,574,566,568,-1,574,568,570,-1,570,568,576,-1,570,576,571,-1,557,559,555,-1,555,559,561,-1,555,561,552,-1,552,561,563,-1,552,563,565,-1,564,550,567,-1,567,550,551,-1,567,551,569,-1,569,551,575,-1,569,575,577,-1,577,575,572,-1,577,572,573,-1,562,554,564,-1,564,554,553,-1,564,553,550,-1,562,560,554,-1,554,560,558,-1,554,558,556,-1,578,579,580,-1,580,579,581,-1,582,578,583,-1,583,578,580,-1,582,583,584,-1,582,584,585,-1,585,584,586,-1,585,586,587,-1,587,586,588,-1,587,588,589,-1,589,588,590,-1,589,590,591,-1,591,590,592,-1,591,592,593,-1,593,592,594,-1,593,594,595,-1,596,595,597,-1,597,595,594,-1,598,596,599,-1,599,596,597,-1,600,601,602,-1,602,601,603,-1,604,600,605,-1,605,600,602,-1,579,604,581,-1,581,604,605,-1,579,578,582,-1,601,600,598,-1,598,600,604,-1,598,604,596,-1,596,604,579,-1,596,579,595,-1,595,579,582,-1,587,589,585,-1,585,589,591,-1,585,591,582,-1,582,591,593,-1,582,593,595,-1,602,603,605,-1,605,603,599,-1,605,599,581,-1,581,599,597,-1,581,597,580,-1,580,597,594,-1,592,584,594,-1,594,584,583,-1,594,583,580,-1,592,590,584,-1,584,590,588,-1,584,588,586,-1,606,607,608,-1,608,607,609,-1,610,606,611,-1,611,606,608,-1,610,611,612,-1,610,612,613,-1,613,612,614,-1,613,614,615,-1,615,614,616,-1,615,616,617,-1,617,616,618,-1,617,618,619,-1,619,618,620,-1,619,620,621,-1,621,620,622,-1,621,622,623,-1,624,623,625,-1,625,623,622,-1,626,624,627,-1,627,624,625,-1,628,629,630,-1,630,629,631,-1,632,628,633,-1,633,628,630,-1,607,632,609,-1,609,632,633,-1,607,606,610,-1,610,623,607,-1,607,623,624,-1,607,624,632,-1,632,624,626,-1,632,626,628,-1,628,626,634,-1,628,634,629,-1,615,617,613,-1,613,617,619,-1,613,619,610,-1,610,619,621,-1,610,621,623,-1,622,608,625,-1,625,608,609,-1,625,609,627,-1,627,609,633,-1,627,633,635,-1,635,633,630,-1,635,630,631,-1,620,612,622,-1,622,612,611,-1,622,611,608,-1,620,618,612,-1,612,618,616,-1,612,616,614,-1,636,637,638,-1,638,637,639,-1,640,636,641,-1,641,636,638,-1,640,641,642,-1,640,642,643,-1,643,642,644,-1,643,644,645,-1,645,644,646,-1,645,646,647,-1,647,646,648,-1,647,648,649,-1,649,648,650,-1,649,650,651,-1,651,650,652,-1,651,652,653,-1,654,653,655,-1,655,653,652,-1,656,654,657,-1,657,654,655,-1,658,659,660,-1,660,659,661,-1,662,658,663,-1,663,658,660,-1,637,662,639,-1,639,662,663,-1,637,636,640,-1,659,658,656,-1,656,658,662,-1,656,662,654,-1,654,662,637,-1,654,637,653,-1,653,637,640,-1,645,647,643,-1,643,647,649,-1,643,649,640,-1,640,649,651,-1,640,651,653,-1,660,661,663,-1,663,661,657,-1,663,657,639,-1,639,657,655,-1,639,655,638,-1,638,655,652,-1,650,642,652,-1,652,642,641,-1,652,641,638,-1,650,648,642,-1,642,648,646,-1,642,646,644,-1,664,665,666,-1,666,665,667,-1,668,664,669,-1,669,664,666,-1,668,669,670,-1,668,670,671,-1,671,670,672,-1,671,672,673,-1,673,672,674,-1,673,674,675,-1,675,674,676,-1,675,676,677,-1,677,676,678,-1,677,678,679,-1,679,678,680,-1,679,680,681,-1,682,681,683,-1,683,681,680,-1,684,682,685,-1,685,682,683,-1,686,687,688,-1,688,687,689,-1,690,686,691,-1,691,686,688,-1,665,690,667,-1,667,690,691,-1,665,664,668,-1,668,681,665,-1,665,681,682,-1,665,682,690,-1,690,682,684,-1,690,684,686,-1,686,684,692,-1,686,692,687,-1,673,675,671,-1,671,675,677,-1,671,677,668,-1,668,677,679,-1,668,679,681,-1,680,666,683,-1,683,666,667,-1,683,667,685,-1,685,667,691,-1,685,691,693,-1,693,691,688,-1,693,688,689,-1,678,670,680,-1,680,670,669,-1,680,669,666,-1,678,676,670,-1,670,676,674,-1,670,674,672,-1,694,695,696,-1,696,695,697,-1,698,694,699,-1,699,694,696,-1,698,699,700,-1,698,700,701,-1,701,700,702,-1,701,702,703,-1,703,702,704,-1,703,704,705,-1,705,704,706,-1,705,706,707,-1,707,706,708,-1,707,708,709,-1,709,708,710,-1,709,710,711,-1,712,711,713,-1,713,711,710,-1,714,712,715,-1,715,712,713,-1,716,717,718,-1,718,717,719,-1,720,716,721,-1,721,716,718,-1,695,720,697,-1,697,720,721,-1,695,694,698,-1,717,716,714,-1,714,716,720,-1,714,720,712,-1,712,720,695,-1,712,695,711,-1,711,695,698,-1,703,705,701,-1,701,705,707,-1,701,707,698,-1,698,707,709,-1,698,709,711,-1,718,719,721,-1,721,719,715,-1,721,715,697,-1,697,715,713,-1,697,713,696,-1,696,713,710,-1,708,700,710,-1,710,700,699,-1,710,699,696,-1,708,706,700,-1,700,706,704,-1,700,704,702,-1,722,723,724,-1,724,723,725,-1,726,722,727,-1,727,722,724,-1,726,727,728,-1,726,728,729,-1,729,728,730,-1,729,730,731,-1,731,730,732,-1,731,732,733,-1,733,732,734,-1,733,734,735,-1,735,734,736,-1,735,736,737,-1,737,736,738,-1,737,738,739,-1,740,739,741,-1,741,739,738,-1,742,740,743,-1,743,740,741,-1,744,745,746,-1,746,745,747,-1,748,744,749,-1,749,744,746,-1,723,748,725,-1,725,748,749,-1,723,722,726,-1,726,739,723,-1,723,739,740,-1,723,740,748,-1,748,740,742,-1,748,742,744,-1,744,742,750,-1,744,750,745,-1,731,733,729,-1,729,733,735,-1,729,735,726,-1,726,735,737,-1,726,737,739,-1,738,724,741,-1,741,724,725,-1,741,725,743,-1,743,725,749,-1,743,749,751,-1,751,749,746,-1,751,746,747,-1,736,728,738,-1,738,728,727,-1,738,727,724,-1,736,734,728,-1,728,734,732,-1,728,732,730,-1,752,753,754,-1,754,753,755,-1,756,752,757,-1,757,752,754,-1,756,757,758,-1,756,758,759,-1,759,758,760,-1,759,760,761,-1,761,760,762,-1,761,762,763,-1,763,762,764,-1,763,764,765,-1,765,764,766,-1,765,766,767,-1,767,766,768,-1,767,768,769,-1,770,769,771,-1,771,769,768,-1,772,770,773,-1,773,770,771,-1,774,775,776,-1,776,775,777,-1,778,774,779,-1,779,774,776,-1,753,778,755,-1,755,778,779,-1,753,752,756,-1,775,774,772,-1,772,774,778,-1,772,778,770,-1,770,778,753,-1,770,753,769,-1,769,753,756,-1,761,763,759,-1,759,763,765,-1,759,765,756,-1,756,765,767,-1,756,767,769,-1,776,777,779,-1,779,777,773,-1,779,773,755,-1,755,773,771,-1,755,771,754,-1,754,771,768,-1,766,758,768,-1,768,758,757,-1,768,757,754,-1,766,764,758,-1,758,764,762,-1,758,762,760,-1,
        ]
    }
}
Shape{
    appearance Appearance {
        material  Material 	{
            diffuseColor 1.0 1.0 1.0
            specularColor 0.8784313725490196 0.8784313725490196 0.8784313725490196
            ambientIntensity 0.2
            transparency 0
            shininess 0.5
        }
    }
    geometry IndexedFaceSet {
        ccw TRUE
        solid FALSE
        coord DEF co Coordinate {
            point [
                -0.3337 0.3583 -0.2094, -0.4105 0.3583 -0.4063, -0.3337 0.3976 -0.2094, -0.4105 0.3976 -0.4063, -0.3817 0.3583 -0.4063, -0.3817 0.3976 -0.4063, -0.3618 0.3583 -0.3511, -0.3618 0.3976 -0.3511, -0.2805 0.3583 -0.3511, -0.2805 0.3976 -0.3511, -0.2617 0.3583 -0.4063, -0.2617 0.3976 -0.4063, -0.2329 0.3583 -0.4063, -0.2329 0.3976 -0.4063, -0.3073 0.3583 -0.2094, -0.3073 0.3976 -0.2094, -0.2871 0.3583 -0.3294, -0.3165 0.3583 -0.2472, -0.3183 0.3583 -0.2404, -0.3196 0.3583 -0.2334, -0.3203 0.3583 -0.2334, -0.3215 0.3583 -0.2404, -0.3233 0.3583 -0.2472, -0.3529 0.3583 -0.3294, -0.2871 0.3976 -0.3294, -0.3529 0.3976 -0.3294, -0.3165 0.3976 -0.2472, -0.3183 0.3976 -0.2404, -0.3196 0.3976 -0.2334, -0.3203 0.3976 -0.2334, -0.3215 0.3976 -0.2404, -0.3233 0.3976 -0.2472, -0.1135 0.3583 -0.4063, -0.06 0.3583 -0.4063, -0.1135 0.3976 -0.4063, -0.06 0.3976 -0.4063, -0.06 0.3583 -0.2094, -0.06 0.3976 -0.2094, -0.1156 0.3583 -0.2094, -0.1156 0.3976 -0.2094, -0.2185 0.3583 -0.3054, -0.2185 0.3976 -0.3054, -0.2181 0.3976 -0.2956, -0.2181 0.3583 -0.2956, -0.2143 0.3976 -0.2748, -0.2143 0.3583 -0.2748, -0.206 0.3976 -0.2557, -0.206 0.3583 -0.2557, -0.1942 0.3976 -0.2403, -0.1942 0.3583 -0.2403, -0.1865 0.3976 -0.2332, -0.1865 0.3583 -0.2332, -0.1671 0.3976 -0.2205, -0.1671 0.3583 -0.2205, -0.144 0.3976 -0.2125, -0.144 0.3583 -0.2125, -0.1385 0.3976 -0.404, -0.1385 0.3583 -0.404, -0.1611 0.3976 -0.3971, -0.1611 0.3583 -0.3971, -0.1815 0.3976 -0.3851, -0.1815 0.3583 -0.3851, -0.1976 0.3976 -0.3696, -0.1976 0.3583 -0.3696, -0.2087 0.3976 -0.3522, -0.2087 0.3583 -0.3522, -0.2157 0.3976 -0.3317, -0.2157 0.3583 -0.3317, -0.192 0.3583 -0.3059, -0.1904 0.3583 -0.2863, -0.1858 0.3583 -0.2708, -0.179 0.3583 -0.2587, -0.1695 0.3583 -0.2485, -0.1551 0.3583 -0.2393, -0.1389 0.3583 -0.2335, -0.1155 0.3583 -0.231, -0.0864 0.3583 -0.231, -0.0864 0.3583 -0.3847, -0.1144 0.3583 -0.3847, -0.1352 0.3583 -0.3827, -0.1517 0.3583 -0.3776, -0.165 0.3583 -0.3697, -0.1762 0.3583 -0.3587, -0.1844 0.3583 -0.3453, -0.1896 0.3583 -0.3296, -0.1155 0.3976 -0.231, -0.0864 0.3976 -0.231, -0.1389 0.3976 -0.2335, -0.1551 0.3976 -0.2393, -0.1695 0.3976 -0.2485, -0.179 0.3976 -0.2587, -0.1858 0.3976 -0.2708, -0.1904 0.3976 -0.2863, -0.192 0.3976 -0.3059, -0.1896 0.3976 -0.3296, -0.1844 0.3976 -0.3453, -0.1762 0.3976 -0.3587, -0.165 0.3976 -0.3697, -0.1517 0.3976 -0.3776, -0.1352 0.3976 -0.3827, -0.1144 0.3976 -0.3847, -0.0864 0.3976 -0.3847, -0.0216 0.3583 -0.3847, -0.0216 0.3583 -0.4063, -0.0216 0.3976 -0.3847, -0.0216 0.3976 -0.4063, 0.084 0.3583 -0.4063, 0.084 0.3976 -0.4063, 0.084 0.3583 -0.2094, 0.084 0.3976 -0.2094, -0.0168 0.3583 -0.2094, -0.0168 0.3976 -0.2094, -0.0168 0.3583 -0.231, -0.0168 0.3976 -0.231, 0.0576 0.3583 -0.231, 0.0576 0.3976 -0.231, 0.0576 0.3583 -0.2958, 0.0576 0.3976 -0.2958, -0.012 0.3583 -0.2958, -0.012 0.3976 -0.2958, -0.012 0.3583 -0.3174, -0.012 0.3976 -0.3174, 0.0576 0.3583 -0.3174, 0.0576 0.3976 -0.3174, 0.0576 0.3583 -0.3847, 0.0576 0.3976 -0.3847, 0.1224 0.3583 -0.3745, 0.1224 0.3583 -0.3961, 0.1224 0.3976 -0.3745, 0.1224 0.3976 -0.3961, 0.1766 0.3583 -0.4087, 0.1766 0.3976 -0.4087, 0.1712 0.3976 -0.4086, 0.1712 0.3583 -0.4086, 0.1434 0.3976 -0.4047, 0.1434 0.3583 -0.4047, 0.2689 0.3583 -0.3116, 0.2689 0.3976 -0.3116, 0.2669 0.3976 -0.3345, 0.2669 0.3583 -0.3345, 0.2608 0.3976 -0.3556, 0.2608 0.3583 -0.3556, 0.2503 0.3976 -0.3742, 0.2503 0.3583 -0.3742, 0.2359 0.3976 -0.3893, 0.2359 0.3583 -0.3893, 0.2199 0.3976 -0.3996, 0.2199 0.3583 -0.3996, 0.2008 0.3976 -0.4062, 0.2008 0.3583 -0.4062, 0.1688 0.3976 -0.207, 0.1827 0.3976 -0.2082, 0.1688 0.3583 -0.207, 0.1895 0.3583 -0.2088, 0.1895 0.3976 -0.2088, 0.2111 0.3976 -0.2153, 0.2111 0.3583 -0.2153, 0.2295 0.3976 -0.226, 0.2295 0.3583 -0.226, 0.2467 0.3976 -0.2425, 0.2467 0.3583 -0.2425, 0.2585 0.3976 -0.2612, 0.2585 0.3583 -0.2612, 0.266 0.3976 -0.2836, 0.266 0.3583 -0.2836, 0.1514 0.3976 -0.2082, 0.1452 0.3583 -0.2086, 0.1452 0.3976 -0.2086, 0.1224 0.3583 -0.2148, 0.1224 0.3976 -0.2148, 0.1224 0.3583 -0.2412, 0.1224 0.3976 -0.2412, 0.1685 0.3583 -0.2286, 0.1685 0.3976 -0.2286, 0.1446 0.3976 -0.2317, 0.1446 0.3583 -0.2317, 0.2425 0.3583 -0.3099, 0.2425 0.3976 -0.3099, 0.2416 0.3976 -0.2952, 0.2416 0.3583 -0.2952, 0.2364 0.3976 -0.2739, 0.2364 0.3583 -0.2739, 0.2283 0.3976 -0.2586, 0.2283 0.3583 -0.2586, 0.2165 0.3976 -0.2454, 0.2165 0.3583 -0.2454, 0.2026 0.3976 -0.2361, 0.2026 0.3583 -0.2361, 0.1879 0.3976 -0.2308, 0.1879 0.3583 -0.2308, 0.173 0.3583 -0.3871, 0.173 0.3976 -0.3871, 0.1912 0.3976 -0.385, 0.1912 0.3583 -0.385, 0.2057 0.3976 -0.3797, 0.2057 0.3583 -0.3797, 0.2178 0.3976 -0.3715, 0.2178 0.3583 -0.3715, 0.2269 0.3976 -0.3618, 0.2269 0.3583 -0.3618, 0.2351 0.3976 -0.3482, 0.2351 0.3583 -0.3482, 0.2405 0.3976 -0.3312, 0.2405 0.3583 -0.3312, 0.126 0.3976 -0.3764, 0.126 0.3583 -0.3764, 0.1468 0.3976 -0.3842, 0.1468 0.3583 -0.3842, 0.2857 0.3583 -0.3847, 0.2857 0.3583 -0.4063, 0.2857 0.3976 -0.3847, 0.2857 0.3976 -0.4063, 0.3865 0.3583 -0.4063, 0.3865 0.3976 -0.4063, 0.3865 0.3583 -0.2094, 0.3865 0.3976 -0.2094, 0.3601 0.3583 -0.2094, 0.3601 0.3976 -0.2094, 0.3601 0.3583 -0.3847, 0.3601 0.3976 -0.3847, 0.3601 0.3976 -0.3847
            ]
        }
        coordIndex [
            0,1,2,-1,2,1,3,-1,1,4,3,-1,3,4,5,-1,4,6,5,-1,5,6,7,-1,6,8,7,-1,7,8,9,-1,8,10,9,-1,9,10,11,-1,10,12,11,-1,11,12,13,-1,12,14,13,-1,13,14,15,-1,14,0,15,-1,15,0,2,-1,16,17,14,-1,12,10,8,-1,17,18,14,-1,14,18,19,-1,14,19,0,-1,0,19,20,-1,0,20,21,-1,21,22,0,-1,0,22,23,-1,0,23,1,-1,4,1,6,-1,6,1,23,-1,6,23,8,-1,8,23,16,-1,8,16,12,-1,12,16,14,-1,16,23,24,-1,24,23,25,-1,17,16,26,-1,26,16,24,-1,17,26,27,-1,17,27,18,-1,18,27,28,-1,18,28,19,-1,20,19,29,-1,29,19,28,-1,20,29,30,-1,20,30,21,-1,21,30,31,-1,21,31,22,-1,23,22,25,-1,25,22,31,-1,32,33,34,-1,34,33,35,-1,33,36,35,-1,35,36,37,-1,36,38,37,-1,37,38,39,-1,40,41,42,-1,40,42,43,-1,43,42,44,-1,43,44,45,-1,45,44,46,-1,45,46,47,-1,47,46,48,-1,47,48,49,-1,49,48,50,-1,49,50,51,-1,51,50,52,-1,51,52,53,-1,53,52,54,-1,53,54,55,-1,55,54,39,-1,55,39,38,-1,32,34,56,-1,32,56,57,-1,57,56,58,-1,57,58,59,-1,59,58,60,-1,59,60,61,-1,61,60,62,-1,61,62,63,-1,63,62,64,-1,63,64,65,-1,65,64,66,-1,65,66,67,-1,67,66,41,-1,67,41,40,-1,67,40,68,-1,68,40,43,-1,68,43,69,-1,69,43,45,-1,69,45,70,-1,70,45,47,-1,70,47,71,-1,71,47,49,-1,71,49,72,-1,72,49,51,-1,72,51,73,-1,73,51,53,-1,73,53,74,-1,74,53,55,-1,74,55,75,-1,75,55,38,-1,75,38,76,-1,76,38,36,-1,76,36,77,-1,77,36,33,-1,77,33,78,-1,78,33,32,-1,78,32,79,-1,79,32,57,-1,79,57,80,-1,80,57,59,-1,80,59,81,-1,81,59,61,-1,81,61,82,-1,82,61,63,-1,82,63,83,-1,83,63,65,-1,83,65,84,-1,84,65,67,-1,84,67,68,-1,75,76,85,-1,85,76,86,-1,75,85,87,-1,75,87,74,-1,74,87,88,-1,74,88,73,-1,73,88,89,-1,73,89,72,-1,72,89,90,-1,72,90,71,-1,71,90,91,-1,71,91,70,-1,70,91,92,-1,70,92,69,-1,69,92,93,-1,69,93,68,-1,68,93,94,-1,68,94,84,-1,84,94,95,-1,84,95,83,-1,83,95,96,-1,83,96,82,-1,82,96,97,-1,82,97,81,-1,81,97,98,-1,81,98,80,-1,80,98,99,-1,80,99,79,-1,79,99,100,-1,79,100,78,-1,77,78,101,-1,101,78,100,-1,76,77,86,-1,86,77,101,-1,102,103,104,-1,104,103,105,-1,103,106,105,-1,105,106,107,-1,106,108,107,-1,107,108,109,-1,108,110,109,-1,109,110,111,-1,110,112,111,-1,111,112,113,-1,112,114,113,-1,113,114,115,-1,114,116,115,-1,115,116,117,-1,116,118,117,-1,117,118,119,-1,118,120,119,-1,119,120,121,-1,120,122,121,-1,121,122,123,-1,122,124,123,-1,123,124,125,-1,124,102,125,-1,125,102,104,-1,106,103,102,-1,102,124,106,-1,106,124,122,-1,106,122,108,-1,112,110,114,-1,114,110,108,-1,114,108,116,-1,116,108,122,-1,116,122,118,-1,118,122,120,-1,126,127,128,-1,128,127,129,-1,130,131,132,-1,130,132,133,-1,133,132,134,-1,133,134,135,-1,135,134,129,-1,135,129,127,-1,136,137,138,-1,136,138,139,-1,139,138,140,-1,139,140,141,-1,141,140,142,-1,141,142,143,-1,143,142,144,-1,143,144,145,-1,145,144,146,-1,145,146,147,-1,147,146,148,-1,147,148,149,-1,149,148,131,-1,149,131,130,-1,150,151,152,-1,152,151,153,-1,151,154,153,-1,153,154,155,-1,153,155,156,-1,156,155,157,-1,156,157,158,-1,158,157,159,-1,158,159,160,-1,160,159,161,-1,160,161,162,-1,162,161,163,-1,162,163,164,-1,164,163,137,-1,164,137,136,-1,150,152,165,-1,165,152,166,-1,165,166,167,-1,167,166,168,-1,167,168,169,-1,168,170,169,-1,169,170,171,-1,172,173,174,-1,172,174,175,-1,175,174,171,-1,175,171,170,-1,176,177,178,-1,176,178,179,-1,179,178,180,-1,179,180,181,-1,181,180,182,-1,181,182,183,-1,183,182,184,-1,183,184,185,-1,185,184,186,-1,185,186,187,-1,187,186,188,-1,187,188,189,-1,189,188,173,-1,189,173,172,-1,190,191,192,-1,190,192,193,-1,193,192,194,-1,193,194,195,-1,195,194,196,-1,195,196,197,-1,197,196,198,-1,197,198,199,-1,199,198,200,-1,199,200,201,-1,201,200,202,-1,201,202,203,-1,203,202,177,-1,203,177,176,-1,126,128,204,-1,126,204,205,-1,205,204,206,-1,205,206,207,-1,207,206,191,-1,207,191,190,-1,193,130,190,-1,190,130,133,-1,190,133,207,-1,207,133,135,-1,207,135,205,-1,205,135,127,-1,205,127,126,-1,170,168,175,-1,175,168,166,-1,175,166,172,-1,172,166,152,-1,172,152,189,-1,189,152,153,-1,189,153,187,-1,187,153,156,-1,187,156,185,-1,185,156,158,-1,185,158,183,-1,183,158,160,-1,183,160,181,-1,181,160,162,-1,181,162,179,-1,179,162,164,-1,179,164,176,-1,176,164,136,-1,176,136,203,-1,203,136,139,-1,203,139,201,-1,201,139,141,-1,201,141,199,-1,199,141,143,-1,199,143,197,-1,197,143,145,-1,197,145,195,-1,195,145,147,-1,195,147,193,-1,193,147,149,-1,193,149,130,-1,208,209,210,-1,210,209,211,-1,209,212,211,-1,211,212,213,-1,212,214,213,-1,213,214,215,-1,214,216,215,-1,215,216,217,-1,216,218,217,-1,217,218,219,-1,218,208,219,-1,219,208,210,-1,216,214,218,-1,218,214,212,-1,218,212,208,-1,208,212,209,-1,
        ]
    }
}
Shape{
    appearance Appearance {
        material  Material 	{
            diffuseColor 0.5882352941176471 0.5725490196078431 0.5254901960784314
            specularColor 0.043137254901960784 0.0392156862745098 0.0392156862745098
            ambientIntensity 0.2
            transparency 0
            shininess 0.5
        }
    }
    geometry IndexedFaceSet {
        ccw TRUE
        solid FALSE
        coord DEF co Coordinate {
            point [
                -0.2871 0.3976 -0.3294, -0.3529 0.3976 -0.3294, -0.3165 0.3976 -0.2472, -0.3233 0.3976 -0.2472, -0.3183 0.3976 -0.2404, -0.3215 0.3976 -0.2404, -0.3196 0.3976 -0.2334, -0.3203 0.3976 -0.2334, -0.0864 0.3976 -0.231, -0.0864 0.3976 -0.3847, -0.1155 0.3976 -0.231, -0.1144 0.3976 -0.3847, -0.1896 0.3976 -0.3296, -0.192 0.3976 -0.3059, -0.1904 0.3976 -0.2863, -0.1858 0.3976 -0.2708, -0.1389 0.3976 -0.2335, -0.1352 0.3976 -0.3827, -0.1517 0.3976 -0.3776, -0.165 0.3976 -0.3697, -0.179 0.3976 -0.2587, -0.1695 0.3976 -0.2485, -0.1551 0.3976 -0.2393, -0.1762 0.3976 -0.3587, -0.1844 0.3976 -0.3453, -0.1844 0.3976 -0.3453
            ]
        }
        coordIndex [
            0,1,2,-1,2,1,3,-1,2,3,4,-1,4,3,5,-1,4,5,6,-1,6,5,7,-1,8,9,10,-1,10,9,11,-1,12,13,10,-1,13,14,10,-1,10,14,15,-1,10,15,16,-1,11,17,10,-1,10,17,18,-1,10,18,19,-1,20,21,15,-1,15,21,22,-1,15,22,16,-1,19,23,10,-1,10,23,24,-1,10,24,12,-1,
        ]
    }
}