ISO-10303-21;
HEADER;
FILE_DESCRIPTION(('FreeCAD Model'),'2;1');
FILE_NAME('Open CASCADE Shape Model','2026-04-09T15:00:08',(''),(''),
  'Open CASCADE STEP processor 7.7','FreeCAD','Unknown');
FILE_SCHEMA(('AUTOMOTIVE_DESIGN { 1 0 10303 214 1 1 1 1 }'));
ENDSEC;
DATA;
#1 = APPLICATION_PROTOCOL_DEFINITION('international standard',
  'automotive_design',2000,#2);
#2 = APPLICATION_CONTEXT(
  'core data for automotive mechanical design processes');
#3 = SHAPE_DEFINITION_REPRESENTATION(#4,#10);
#4 = PRODUCT_DEFINITION_SHAPE('','',#5);
#5 = PRODUCT_DEFINITION('design','',#6,#9);
#6 = PRODUCT_DEFINITION_FORMATION('','',#7);
#7 = PRODUCT('Revolve','Revolve','',(#8));
#8 = PRODUCT_CONTEXT('',#2,'mechanical');
#9 = PRODUCT_DEFINITION_CONTEXT('part definition',#2,'design');
#10 = MANIFOLD_SURFACE_SHAPE_REPRESENTATION('',(#11,#15),#168);
#11 = AXIS2_PLACEMENT_3D('',#12,#13,#14);
#12 = CARTESIAN_POINT('',(0.,0.,0.));
#13 = DIRECTION('',(0.,0.,1.));
#14 = DIRECTION('',(1.,0.,-0.));
#15 = SHELL_BASED_SURFACE_MODEL('',(#16));
#16 = CLOSED_SHELL('',(#17,#34,#59,#79,#104,#124,#149));
#17 = ADVANCED_FACE('',(#18),#29,.F.);
#18 = FACE_BOUND('',#19,.T.);
#19 = EDGE_LOOP('',(#20));
#20 = ORIENTED_EDGE('',*,*,#21,.F.);
#21 = EDGE_CURVE('',#22,#22,#24,.T.);
#22 = VERTEX_POINT('',#23);
#23 = CARTESIAN_POINT('',(0.75,0.,0.));
#24 = CIRCLE('',#25,0.75);
#25 = AXIS2_PLACEMENT_3D('',#26,#27,#28);
#26 = CARTESIAN_POINT('',(0.,0.,0.));
#27 = DIRECTION('',(0.,0.,1.));
#28 = DIRECTION('',(1.,0.,-0.));
#29 = PLANE('',#30);
#30 = AXIS2_PLACEMENT_3D('',#31,#32,#33);
#31 = CARTESIAN_POINT('',(0.,0.,0.));
#32 = DIRECTION('',(0.,0.,1.));
#33 = DIRECTION('',(1.,0.,-0.));
#34 = ADVANCED_FACE('',(#35),#54,.T.);
#35 = FACE_BOUND('',#36,.T.);
#36 = EDGE_LOOP('',(#37,#38,#46,#53));
#37 = ORIENTED_EDGE('',*,*,#21,.T.);
#38 = ORIENTED_EDGE('',*,*,#39,.T.);
#39 = EDGE_CURVE('',#22,#40,#42,.T.);
#40 = VERTEX_POINT('',#41);
#41 = CARTESIAN_POINT('',(0.75,1.554312234475E-16,0.7));
#42 = LINE('',#43,#44);
#43 = CARTESIAN_POINT('',(0.75,0.,0.));
#44 = VECTOR('',#45,1.);
#45 = DIRECTION('',(0.,2.22044604925E-16,1.));
#46 = ORIENTED_EDGE('',*,*,#47,.F.);
#47 = EDGE_CURVE('',#40,#40,#48,.T.);
#48 = CIRCLE('',#49,0.75);
#49 = AXIS2_PLACEMENT_3D('',#50,#51,#52);
#50 = CARTESIAN_POINT('',(0.,0.,0.7));
#51 = DIRECTION('',(0.,0.,1.));
#52 = DIRECTION('',(1.,2.072416312634E-16,-0.));
#53 = ORIENTED_EDGE('',*,*,#39,.F.);
#54 = CYLINDRICAL_SURFACE('',#55,0.75);
#55 = AXIS2_PLACEMENT_3D('',#56,#57,#58);
#56 = CARTESIAN_POINT('',(0.,0.,0.));
#57 = DIRECTION('',(0.,0.,1.));
#58 = DIRECTION('',(1.,0.,-0.));
#59 = ADVANCED_FACE('',(#60,#71),#74,.T.);
#60 = FACE_BOUND('',#61,.F.);
#61 = EDGE_LOOP('',(#62));
#62 = ORIENTED_EDGE('',*,*,#63,.T.);
#63 = EDGE_CURVE('',#64,#64,#66,.T.);
#64 = VERTEX_POINT('',#65);
#65 = CARTESIAN_POINT('',(0.65,1.554312234475E-16,0.7));
#66 = CIRCLE('',#67,0.65);
#67 = AXIS2_PLACEMENT_3D('',#68,#69,#70);
#68 = CARTESIAN_POINT('',(0.,0.,0.7));
#69 = DIRECTION('',(0.,0.,1.));
#70 = DIRECTION('',(1.,2.3912495915E-16,-0.));
#71 = FACE_BOUND('',#72,.F.);
#72 = EDGE_LOOP('',(#73));
#73 = ORIENTED_EDGE('',*,*,#47,.F.);
#74 = PLANE('',#75);
#75 = AXIS2_PLACEMENT_3D('',#76,#77,#78);
#76 = CARTESIAN_POINT('',(0.,0.,0.7));
#77 = DIRECTION('',(0.,0.,1.));
#78 = DIRECTION('',(1.,2.3912495915E-16,-0.));
#79 = ADVANCED_FACE('',(#80),#99,.T.);
#80 = FACE_BOUND('',#81,.F.);
#81 = EDGE_LOOP('',(#82,#91,#97,#98));
#82 = ORIENTED_EDGE('',*,*,#83,.T.);
#83 = EDGE_CURVE('',#84,#84,#86,.T.);
#84 = VERTEX_POINT('',#85);
#85 = CARTESIAN_POINT('',(0.65,6.217248937901E-16,2.8));
#86 = CIRCLE('',#87,0.65);
#87 = AXIS2_PLACEMENT_3D('',#88,#89,#90);
#88 = CARTESIAN_POINT('',(0.,0.,2.8));
#89 = DIRECTION('',(0.,0.,1.));
#90 = DIRECTION('',(1.,9.564998366001E-16,-0.));
#91 = ORIENTED_EDGE('',*,*,#92,.T.);
#92 = EDGE_CURVE('',#84,#64,#93,.T.);
#93 = LINE('',#94,#95);
#94 = CARTESIAN_POINT('',(0.65,6.217248937901E-16,2.8));
#95 = VECTOR('',#96,1.);
#96 = DIRECTION('',(0.,-2.22044604925E-16,-1.));
#97 = ORIENTED_EDGE('',*,*,#63,.F.);
#98 = ORIENTED_EDGE('',*,*,#92,.F.);
#99 = CYLINDRICAL_SURFACE('',#100,0.65);
#100 = AXIS2_PLACEMENT_3D('',#101,#102,#103);
#101 = CARTESIAN_POINT('',(0.,0.,2.8));
#102 = DIRECTION('',(-0.,-0.,-1.));
#103 = DIRECTION('',(1.,9.564998366001E-16,-0.));
#104 = ADVANCED_FACE('',(#105,#116),#119,.T.);
#105 = FACE_BOUND('',#106,.F.);
#106 = EDGE_LOOP('',(#107));
#107 = ORIENTED_EDGE('',*,*,#108,.T.);
#108 = EDGE_CURVE('',#109,#109,#111,.T.);
#109 = VERTEX_POINT('',#110);
#110 = CARTESIAN_POINT('',(0.4,6.217248937901E-16,2.8));
#111 = CIRCLE('',#112,0.4);
#112 = AXIS2_PLACEMENT_3D('',#113,#114,#115);
#113 = CARTESIAN_POINT('',(0.,0.,2.8));
#114 = DIRECTION('',(0.,0.,1.));
#115 = DIRECTION('',(1.,1.554312234475E-15,-0.));
#116 = FACE_BOUND('',#117,.F.);
#117 = EDGE_LOOP('',(#118));
#118 = ORIENTED_EDGE('',*,*,#83,.F.);
#119 = PLANE('',#120);
#120 = AXIS2_PLACEMENT_3D('',#121,#122,#123);
#121 = CARTESIAN_POINT('',(0.,0.,2.8));
#122 = DIRECTION('',(0.,0.,1.));
#123 = DIRECTION('',(1.,1.554312234475E-15,-0.));
#124 = ADVANCED_FACE('',(#125),#144,.T.);
#125 = FACE_BOUND('',#126,.F.);
#126 = EDGE_LOOP('',(#127,#136,#142,#143));
#127 = ORIENTED_EDGE('',*,*,#128,.T.);
#128 = EDGE_CURVE('',#129,#129,#131,.T.);
#129 = VERTEX_POINT('',#130);
#130 = CARTESIAN_POINT('',(0.4,7.549516857641E-16,3.40000013069));
#131 = CIRCLE('',#132,0.4);
#132 = AXIS2_PLACEMENT_3D('',#133,#134,#135);
#133 = CARTESIAN_POINT('',(0.,0.,3.40000013069));
#134 = DIRECTION('',(0.,0.,1.));
#135 = DIRECTION('',(1.,1.88737921441E-15,-0.));
#136 = ORIENTED_EDGE('',*,*,#137,.T.);
#137 = EDGE_CURVE('',#129,#109,#138,.T.);
#138 = LINE('',#139,#140);
#139 = CARTESIAN_POINT('',(0.4,7.549516857641E-16,3.40000013069));
#140 = VECTOR('',#141,1.);
#141 = DIRECTION('',(0.,-2.22044604925E-16,-1.));
#142 = ORIENTED_EDGE('',*,*,#108,.F.);
#143 = ORIENTED_EDGE('',*,*,#137,.F.);
#144 = CYLINDRICAL_SURFACE('',#145,0.4);
#145 = AXIS2_PLACEMENT_3D('',#146,#147,#148);
#146 = CARTESIAN_POINT('',(0.,0.,3.40000013069));
#147 = DIRECTION('',(-0.,-0.,-1.));
#148 = DIRECTION('',(1.,1.88737921441E-15,-0.));
#149 = ADVANCED_FACE('',(#150),#163,.T.);
#150 = FACE_BOUND('',#151,.T.);
#151 = EDGE_LOOP('',(#152,#153,#162));
#152 = ORIENTED_EDGE('',*,*,#128,.T.);
#153 = ORIENTED_EDGE('',*,*,#154,.T.);
#154 = EDGE_CURVE('',#129,#155,#157,.T.);
#155 = VERTEX_POINT('',#156);
#156 = CARTESIAN_POINT('',(2.0212777289E-16,8.437694987089E-16,
    3.799999999972));
#157 = CIRCLE('',#158,0.4);
#158 = AXIS2_PLACEMENT_3D('',#159,#160,#161);
#159 = CARTESIAN_POINT('',(-8.470329472543E-22,7.549516567389E-16,
    3.399999999972));
#160 = DIRECTION('',(0.,-1.,2.22044604925E-16));
#161 = DIRECTION('',(1.,0.,0.));
#162 = ORIENTED_EDGE('',*,*,#154,.F.);
#163 = SPHERICAL_SURFACE('',#164,0.4);
#164 = AXIS2_PLACEMENT_3D('',#165,#166,#167);
#165 = CARTESIAN_POINT('',(-8.470329472543E-22,7.549516567389E-16,
    3.399999999972));
#166 = DIRECTION('',(0.,0.,1.));
#167 = DIRECTION('',(1.,2.891202293362E-15,-0.));
#168 = ( GEOMETRIC_REPRESENTATION_CONTEXT(3) 
GLOBAL_UNCERTAINTY_ASSIGNED_CONTEXT((#172)) GLOBAL_UNIT_ASSIGNED_CONTEXT
((#169,#170,#171)) REPRESENTATION_CONTEXT('Context #1',
  '3D Context with UNIT and UNCERTAINTY') );
#169 = ( LENGTH_UNIT() NAMED_UNIT(*) SI_UNIT(.MILLI.,.METRE.) );
#170 = ( NAMED_UNIT(*) PLANE_ANGLE_UNIT() SI_UNIT($,.RADIAN.) );
#171 = ( NAMED_UNIT(*) SI_UNIT($,.STERADIAN.) SOLID_ANGLE_UNIT() );
#172 = UNCERTAINTY_MEASURE_WITH_UNIT(LENGTH_MEASURE(1.E-07),#169,
  'distance_accuracy_value','confusion accuracy');
#173 = PRODUCT_RELATED_PRODUCT_CATEGORY('part',$,(#7));
#174 = MECHANICAL_DESIGN_GEOMETRIC_PRESENTATION_REPRESENTATION('',(#175)
  ,#168);
#175 = STYLED_ITEM('color',(#176),#15);
#176 = PRESENTATION_STYLE_ASSIGNMENT((#177,#183));
#177 = SURFACE_STYLE_USAGE(.BOTH.,#178);
#178 = SURFACE_SIDE_STYLE('',(#179));
#179 = SURFACE_STYLE_FILL_AREA(#180);
#180 = FILL_AREA_STYLE('',(#181));
#181 = FILL_AREA_STYLE_COLOUR('',#182);
#182 = COLOUR_RGB('',0.800000010877,0.800000010877,0.90196104065);
#183 = CURVE_STYLE('',#184,POSITIVE_LENGTH_MEASURE(0.1),#185);
#184 = DRAUGHTING_PRE_DEFINED_CURVE_FONT('continuous');
#185 = DRAUGHTING_PRE_DEFINED_COLOUR('white');
ENDSEC;
END-ISO-10303-21;
